<?xml version="1.0" encoding="UTF-8"?>
<!DOCTYPE svg PUBLIC "-//W3C//DTD SVG 1.1//EN" "http://www.w3.org/Graphics/SVG/1.1/DTD/svg11.dtd">
<!-- Creator: CorelDRAW X7 -->
<svg xmlns="http://www.w3.org/2000/svg" xml:space="preserve" width="6.8253in" height="6.82531in" version="1.1" style="shape-rendering:geometricPrecision; text-rendering:geometricPrecision; image-rendering:optimizeQuality; fill-rule:evenodd; clip-rule:evenodd"
viewBox="0 0 9656 9656"
 xmlns:xlink="http://www.w3.org/1999/xlink">
 <defs>
  <style type="text/css">
   <![CDATA[
    .fil1 {fill:black}
    .fil2 {fill:#ED1B24}
    .fil3 {fill:#EE1A22}
    .fil0 {fill:#FEFEFE}
   ]]>
  </style>
 </defs>
 <g id="Layer_x0020_1">
  <metadata id="CorelCorpID_0Corel-Layer"/>
  <path class="fil0" d="M4828 0c2667,0 4828,2161 4828,4828 0,2667 -2161,4828 -4828,4828 -2667,0 -4828,-2161 -4828,-4828 0,-2667 2161,-4828 4828,-4828z"/>
  <path class="fil1" d="M4828 178c2566,0 4647,2080 4647,4646 0,2567 -2081,4647 -4647,4647 -2566,0 -4647,-2080 -4647,-4647 0,-2566 2081,-4646 4647,-4646zm0 625c2223,0 4025,1802 4025,4025 0,2223 -1802,4025 -4025,4025 -2223,0 -4025,-1802 -4025,-4025 0,-2223 1802,-4025 4025,-4025z"/>
  <path class="fil2" d="M4828 803c2223,0 4025,1802 4025,4025 0,2223 -1802,4025 -4025,4025 -2223,0 -4025,-1802 -4025,-4025 0,-2223 1802,-4025 4025,-4025z"/>
  <path class="fil1" d="M5812 8726c-316,81 -648,123 -988,123 -1875,0 -3454,-1285 -3898,-3025 251,27 560,-66 930,-251 286,-143 579,-263 857,-394 -444,-58 -668,-224 -664,-505 375,50 622,27 734,-66 -653,-143 -1019,-475 -1073,-996 -74,-710 104,-1184 498,-1439 455,-297 1022,-405 1701,-313 -756,70 -1250,274 -1420,641 -177,378 -69,733 301,980 228,151 506,178 784,89 420,-131 941,-70 1578,231 46,24 97,20 155,12 497,-69 972,108 1420,506 571,-27 941,-186 1077,-487 239,-528 88,-964 -429,-1292 533,38 892,355 1007,960 116,618 -54,1066 -416,1359 -244,193 -498,340 -788,417 51,65 66,119 62,170 -4,112 70,158 201,135 -50,31 -108,58 -178,77 43,15 77,35 112,54 -185,247 -540,274 -1057,85 -170,594 -313,1158 -375,1702 -65,567 -100,976 -139,1219l8 8z"/>
  <path class="fil3" d="M3998 5569c-220,-73 -324,-293 -339,-594 85,115 162,220 239,312 -23,-7 -39,-7 -50,0 -23,20 -8,85 42,135 43,47 124,51 158,39 20,19 39,39 58,58 27,27 81,27 151,15 -27,50 -120,81 -263,31l4 4z"/>
  <path class="fil3" d="M5569 5747c232,-31 378,-220 452,-518 -105,97 -205,186 -298,259 24,-4 39,0 47,12 19,23 -12,84 -70,123 -50,35 -131,27 -166,8 -23,15 -46,31 -69,46 -31,19 -85,12 -151,-15 20,54 104,100 251,81l4 4z"/>
  <path class="fil0" d="M4581 7310c-108,-4 -189,-54 -239,-135 61,3 131,-4 208,-24 62,-15 135,-19 220,8 70,23 143,50 224,62 -46,54 -108,89 -185,85 -97,0 -174,4 -232,0l4 4z"/>
  <path class="fil0" d="M4095 7059c11,-66 50,-124 96,-193 66,-101 139,-147 247,-147 170,4 328,0 475,16 139,11 208,65 251,146 46,93 89,166 92,232 8,96 -73,139 -227,81 -151,-54 -240,-116 -294,-124 -77,-11 -139,-19 -173,-4 -77,35 -170,74 -294,85 -127,12 -185,-19 -169,-92l-4 0zm891 -209c8,-23 31,-34 54,-31 23,8 35,31 31,51 -15,50 -38,85 -69,112 -31,27 -74,46 -124,57 -23,8 -46,-7 -50,-30 -8,-24 8,-47 31,-51 38,-11 69,-23 93,-42 19,-16 34,-39 42,-70l-8 4zm-721 -4c-8,-23 7,-46 30,-50 24,-7 47,8 51,31 7,31 23,54 42,70 23,19 50,30 93,42 23,8 34,31 31,50 -8,23 -31,35 -51,31 -50,-15 -88,-31 -123,-58 -35,-27 -58,-65 -70,-112l-3 -4z"/>
 </g>
</svg>
