<?xml version="1.0" encoding="UTF-8"?>
<!DOCTYPE svg PUBLIC "-//W3C//DTD SVG 1.1//EN" "http://www.w3.org/Graphics/SVG/1.1/DTD/svg11.dtd">
<!-- Creator: CorelDRAW X7 -->
<svg xmlns="http://www.w3.org/2000/svg" xml:space="preserve" width="6.26365in" height="6.36896in" version="1.1" style="shape-rendering:geometricPrecision; text-rendering:geometricPrecision; image-rendering:optimizeQuality; fill-rule:evenodd; clip-rule:evenodd"
viewBox="0 0 38691 39341"
 xmlns:xlink="http://www.w3.org/1999/xlink">
 <defs>
  <style type="text/css">
   <![CDATA[
    .str0 {stroke:#373435;stroke-width:42.8987}
    .fil2 {fill:none}
    .fil0 {fill:#FEFEFE}
    .fil1 {fill:#373435;fill-rule:nonzero}
   ]]>
  </style>
     <clipPath id="id0">
      <path d="M15318 29288c3,229 6,458 9,687 -5,209 -10,418 -15,627 -6,265 -39,1099 -46,1364 -6,228 -204,411 -429,414 -5,0 -11,0 -16,0 -2,0 -4,0 -6,0 0,-1 0,-2 0,-3 -111,1 -230,-61 -301,-139 -76,-81 -121,-191 -116,-310 5,-140 10,-279 15,-419 13,-344 52,-1258 65,-1602 18,-471 28,-1110 45,-1581 7,-189 -9,-534 52,-590 268,-273 512,-353 780,-626 -4,231 -8,462 -12,693 -15,6 -30,12 -44,19 1,126 3,252 5,378 4,362 9,725 14,1088z"/>
     </clipPath>
     <clipPath id="id1">
      <path d="M23699 9913c-11,-229 -22,-458 -33,-686 -2,-209 -4,-418 -6,-627 -2,-265 2,-1100 0,-1366 -2,-228 190,-417 415,-427 5,0 10,-1 16,-1 2,0 4,0 6,0 0,1 0,2 0,2 111,-4 231,55 305,129 79,79 128,188 127,306 0,140 -1,280 -1,420 -1,344 -10,1259 -11,1603 -1,471 11,1111 9,1582 -1,189 27,533 -32,591 -258,282 -500,370 -758,652 -4,-231 -8,-462 -12,-693 15,-6 29,-13 44,-20 -6,-126 -12,-252 -18,-378 -17,-362 -34,-724 -51,-1087z"/>
     </clipPath>
     <clipPath id="id2">
      <path d="M22642 29718c116,126 231,252 347,378 100,120 200,240 300,361 5,6 10,12 16,19 140,171 505,628 627,775 109,132 53,368 -112,521 -4,4 -7,7 -11,11 -2,1 -4,2 -5,4 0,-1 -1,-1 -1,-1 -81,75 -200,120 -291,125 -97,5 -184,-26 -240,-95 -65,-82 -131,-164 -196,-245 -162,-201 -586,-739 -747,-940 -704,-879 -508,-871 -740,-2157 111,132 223,264 334,396 -8,13 -15,27 -23,40 64,70 127,139 191,208 184,200 367,400 551,600z"/>
     </clipPath>
 </defs>
 <g id="Layer_x0020_1">
  <metadata id="CorelCorpID_0Corel-Layer"/>
  <g id="_2531613789296">
   <g>
    <path class="fil0" d="M21302 17293l-1124 -1428 -6331 -7849c-323,-401 -247,-997 158,-1314 405,-318 996,-247 1314,158l7207 9177 298 -2563 -6149 -7831c-935,-1191 -2675,-1400 -3866,-465 -1191,935 -1403,2677 -465,3866l6627 8404 814 1036 1517 -1191z"/>
    <path class="fil1" d="M21285 17306l-1124 -1428 -6331 -7849 0 0 -7 -9 0 0c-160,-204 -221,-454 -191,-695 29,-240 149,-470 350,-633l0 0 10 -7 0 0 0 0 0 0c207,-163 462,-226 705,-197 244,30 476,151 639,358l0 0 7174 9137 292 -2503 -6144 -7824 0 0 0 0 0 0c-464,-591 -1127,-938 -1823,-1022 -695,-83 -1422,97 -2013,561l0 0 0 0 -5 4 0 -1c-588,464 -934,1127 -1018,1821 -84,693 95,1418 558,2007l3 5 0 0 6628 8403 814 1037 -33 26 -815 -1036 -6627 -8403 0 0 -4 -5c-470,-598 -652,-1335 -566,-2040 85,-704 436,-1377 1034,-1848l0 0 4 -4 0 0 1 0c600,-471 1338,-654 2044,-569 706,85 1381,438 1852,1038l0 0 0 0 0 0 6149 7831 4 16 -298 2563 -38 11 -7207 -9178 0 0c-155,-198 -377,-314 -610,-342 -233,-28 -476,32 -674,187l0 0 0 0 0 0 -9 8c-192,155 -307,375 -335,604 -28,230 30,469 182,663l0 0 8 9 6330 7849 0 0 1125 1429 -34 26z"/>
    <path class="fil0" d="M19785 18484l-814 -1036 -6627 -8404c-938,-1189 -726,-2931 465,-3866 1191,-935 2931,-726 3866,465l6149 7831 427 -2893 -4929 -6278c-1594,-2029 -4557,-2385 -6587,-792 -2029,1593 -2385,4557 -792,6586l7446 9483 1396 -1096z"/>
    <path class="fil1" d="M19769 18497l-815 -1036 -6627 -8403 0 0 -4 -5c-470,-598 -652,-1335 -566,-2040 85,-704 436,-1377 1034,-1848l0 0 4 -4 0 0 1 0c600,-471 1338,-654 2044,-569 707,85 1381,438 1852,1038l0 0 0 0 0 0 6118 7792 419 -2835 -4924 -6270 0 0c-793,-1010 -1927,-1604 -3116,-1747 -1188,-143 -2431,165 -3440,958 -1010,793 -1604,1927 -1747,3115 -143,1189 165,2431 958,3441l0 0 7446 9483 -34 27 -7446 -9484 0 1c-800,-1020 -1111,-2274 -967,-3473 145,-1199 744,-2343 1763,-3144 1019,-800 2273,-1111 3473,-967 1199,145 2343,744 3144,1763l-1 0 4930 6278 6 7 -2 9 -427 2893 -7 49 -31 -39 -6149 -7831 0 0 0 0 0 0c-464,-591 -1127,-938 -1823,-1022 -695,-83 -1422,97 -2013,561l0 0 0 0 -5 4 0 -1c-588,464 -934,1127 -1018,1821 -84,693 95,1418 558,2007l3 5 0 0 6628 8403 814 1037 -33 26z"/>
    <path class="fil0" d="M18389 19580l-7446 -9483c-1593,-2029 -1237,-4993 792,-6586 2030,-1593 4993,-1237 6587,792l4929 6278 200 -1353 163 -1400 -3750 -4776c-2260,-2878 -6465,-3384 -9344,-1124 -2879,2261 -3385,6466 -1125,9345l7466 9507 1528 -1200z"/>
    <path class="fil1" d="M18372 19594l-7446 -9484 0 1c-800,-1020 -1111,-2274 -967,-3473 145,-1199 744,-2343 1763,-3144 1019,-800 2273,-1111 3473,-967 1199,145 2343,744 3144,1763l-1 0 4899 6239 193 -1303 162 -1392 -3745 -4768 0 0 0 0 0 0c-1126,-1435 -2738,-2279 -4426,-2482 -1688,-203 -3453,234 -4888,1361l0 0 0 0c-1435,1127 -2278,2738 -2482,4426 -203,1688 235,3454 1361,4888l0 1 7466 9507 -34 27 -7466 -9508 0 0c-1134,-1444 -1574,-3221 -1369,-4920 204,-1699 1053,-3321 2497,-4455l0 0 0 0c1445,-1134 3221,-1574 4920,-1369 1699,204 3321,1053 4455,2497l0 0 0 0 0 0 3750 4776 4 15 -163 1401 0 0 -200 1353 -7 50 -31 -39 -4929 -6278 0 0c-793,-1010 -1927,-1604 -3116,-1747 -1188,-143 -2431,165 -3440,958 -1010,793 -1604,1927 -1747,3115 -143,1189 165,2431 958,3441l0 0 7446 9483 -34 27z"/>
    <path class="fil2" d="M18971 17448l-6627 -8404c-938,-1189 -726,-2931 465,-3866 1191,-935 2931,-726 3866,465l6149 7831 -298 2563 -7207 -9177c-318,-405 -909,-476 -1314,-158 -405,317 -481,913 -158,1314l6331 7849m-393 2619l-814 -1036 814 1036m3039 -5010c209,-1415 418,-2831 627,-4246m-3273 6637l1124 1428m-11907 -6020c-2260,-2879 -1754,-7084 1125,-9345 2879,-2260 7084,-1754 9344,1124l3750 4776 -326 2800 -4966 -6325c-1594,-2029 -4557,-2385 -6587,-792 -2029,1593 -2385,4557 -792,6586l7446 9483m-1528 1200l-7466 -9507c-2260,-2879 -1754,-7084 1125,-9345 2879,-2260 7084,-1754 9344,1124l3750 4776 -326 2800 -4966 -6325c-1594,-2029 -4557,-2385 -6587,-792 -2029,1593 -2385,4557 -792,6586"/>
    <path class="fil1" d="M18568 17764l-6628 -8403 -1 1 -4 -4c-553,-705 -767,-1573 -667,-2405 100,-828 515,-1619 1219,-2175l-1 -1 5 -4 0 0 1 2c708,-557 1578,-773 2407,-673 830,100 1623,516 2179,1224l2 -1 0 0 -2 1 5412 6893 221 -1495 -4793 -6104 -1 1c-709,-903 -1723,-1433 -2787,-1561 -1064,-128 -2176,146 -3078,854 -902,708 -1432,1723 -1560,2788 -128,1063 147,2175 856,3077l-2 2 7447 9483 -807 633 -7446 -9483 -2 1c-884,-1126 -1228,-2511 -1068,-3836 159,-1322 821,-2586 1949,-3471 1127,-885 2512,-1229 3834,-1070 1325,159 2589,821 3473,1947l-1 2 4193 5339 25 -170 137 -1178 -3619 -4609 -2 1 0 0 2 -1c-1042,-1327 -2534,-2107 -4099,-2295 -1563,-188 -3197,216 -4524,1259l0 0 -1 0c-1327,1043 -2108,2534 -2296,4097 -188,1565 216,3199 1258,4526l1 -1 0 0 7466 9508 -810 635 -7466 -9507 0 0 2 -2c-1219,-1552 -1692,-3459 -1473,-5282 220,-1824 1131,-3566 2683,-4784l0 0 0 0c1551,-1218 3459,-1691 5283,-1471 1823,219 3564,1132 4782,2684l2 -2 0 1 -2 1 3750 4775 107 377 -326 2800 -45 13 -420 2845 -276 2369 -350 275 -586 165 -7207 -9177 0 -1c-71,-90 -173,-143 -281,-156 -107,-13 -219,14 -310,85l0 0 -1 -1 -5 4 0 0c-88,71 -141,174 -154,281 -13,105 12,213 79,299l5 5 0 0 6330 7849 -399 322 403 -317 1125 1428 -807 634 -1121 -1424 -6331 -7849 -2 -3 -7 -9 -2 -2c-244,-311 -337,-693 -292,-1058 44,-362 225,-710 530,-955l3 -3 10 -7 0 -3 0 0c314,-247 700,-343 1069,-298 369,44 721,229 968,543l0 0 6436 8197 130 -1115 -6018 -7664 -2 1 0 0 2 -1c-379,-483 -924,-767 -1496,-836 -571,-69 -1168,78 -1651,457l2 2 0 0 -5 4 -1 -2c-481,379 -765,923 -834,1494 -68,567 79,1160 458,1643l3 4 -1 2 6628 8403 814 1036 -807 634 -814 -1037z"/>
   </g>
   <g>
    <path class="fil0" d="M23065 19264l44 -1818 126 -10083c6,-514 445,-925 959,-911 515,13 925,444 912,959l-298 11665 1864 -1784 254 -9954c39,-1514 -1168,-2784 -2682,-2823 -1514,-39 -2788,1168 -2823,2682l-251 10700 -33 1318 1928 49z"/>
    <path class="fil1" d="M23044 19263l44 -1817 125 -10083 0 0 1 -12 0 0c6,-259 119,-490 295,-657 176,-166 415,-267 673,-264l0 0 13 0 0 0 0 0 0 0c263,7 500,121 668,298 169,178 271,420 264,683l0 0 -296 11614 1820 -1743 254 -9945 0 0 0 0 0 0c19,-751 -271,-1441 -753,-1949 -483,-508 -1158,-832 -1909,-852l0 0 0 0 -6 0 0 0c-749,-17 -1438,272 -1945,754 -506,481 -831,1153 -850,1902l0 6 0 0 -250 10700 -34 1317 -42 -1 33 -1318 250 -10699 0 0 0 -6c20,-761 349,-1444 864,-1933 515,-488 1215,-782 1975,-765l0 0 6 1 0 0 0 0c763,19 1449,349 1939,864 490,516 784,1218 764,1981l0 0 0 0 0 0 -254 9953 -6 15 -1864 1785 -36 -16 297 -11666 0 0c7,-251 -90,-482 -252,-652 -161,-170 -387,-279 -638,-285l0 0 0 0 0 0 -12 0c-247,-3 -475,93 -644,252 -167,159 -275,380 -282,627l0 0 0 11 -126 10083 0 1 -44 1817 -42 -1z"/>
    <path class="fil0" d="M21137 19215l33 -1318 251 -10700c35,-1514 1309,-2721 2823,-2682 1514,39 2721,1309 2682,2823l-254 9954 2173 -1957 204 -7980c66,-2579 -1991,-4743 -4570,-4809 -2579,-65 -4743,1991 -4809,4570l-307 12053 1774 46z"/>
    <path class="fil1" d="M21116 19214l33 -1318 250 -10699 0 0 0 -6c20,-760 349,-1444 864,-1933 515,-488 1215,-782 1975,-765l0 0 6 1 0 0 0 0c763,19 1449,349 1939,864 490,516 784,1218 764,1981l0 0 0 0 0 0 -252 9903 2129 -1917 203 -7970 0 0c33,-1284 -462,-2464 -1287,-3332 -824,-867 -1978,-1422 -3261,-1455 -1284,-33 -2464,462 -3332,1287 -868,824 -1422,1978 -1455,3262l0 0 -308 12053 -43 -1 308 -12054 0 0c33,-1295 593,-2459 1468,-3291 876,-832 2067,-1332 3363,-1299 1295,33 2459,593 3291,1469 832,875 1332,2066 1299,3362l0 0 -204 7979 0 10 -7 6 -2173 1956 -37 34 2 -50 254 -9954 0 0 0 0 0 0c19,-751 -271,-1441 -753,-1949 -483,-508 -1158,-832 -1909,-852l0 0 0 0 -6 0 0 0c-749,-17 -1438,272 -1945,754 -506,481 -831,1153 -850,1902l0 6 0 0 -250 10700 -34 1317 -42 -1z"/>
    <path class="fil0" d="M19363 19169l307 -12053c66,-2579 2230,-4635 4809,-4570 2579,66 4636,2230 4570,4809l-204 7980 1017 -915 1018 -975 155 -6070c93,-3659 -2824,-6730 -6484,-6823 -3659,-94 -6729,2824 -6823,6483l-308 12085 1943 49z"/>
    <path class="fil1" d="M19341 19169l308 -12054 0 0c33,-1295 593,-2459 1468,-3291 876,-832 2067,-1332 3363,-1299 1295,33 2459,593 3291,1469 832,875 1332,2066 1299,3362l0 0 -202 7930 979 -882 1012 -969 154 -6061 0 0 0 0 0 0c47,-1823 -657,-3500 -1828,-4733 -1172,-1233 -2810,-2021 -4634,-2068l0 0 0 0c-1824,-46 -3501,658 -4733,1829 -1233,1171 -2022,2810 -2068,4634l0 0 -309 12084 -42 -1 308 -12084 0 -1c47,-1835 840,-3484 2081,-4663 1241,-1179 2928,-1887 4764,-1841l0 0 0 0c1836,47 3485,841 4664,2081 1179,1241 1887,2929 1840,4764l0 0 0 0 0 0 -155 6070 -6 15 -1019 975 0 0 -1017 916 -37 33 2 -50 203 -7979 0 0c33,-1284 -462,-2464 -1287,-3332 -824,-867 -1978,-1422 -3261,-1455 -1284,-33 -2464,462 -3332,1287 -868,824 -1422,1978 -1455,3262l0 0 -308 12053 -43 -1z"/>
    <path class="fil2" d="M21170 17897l251 -10700c35,-1514 1309,-2721 2823,-2682 1514,39 2721,1309 2682,2823l-254 9954 -1864 1784 298 -11665c13,-515 -397,-946 -912,-959 -514,-14 -953,397 -959,911l-126 10083m-1972 1769l33 -1318 -33 1318m5535 -1923c1063,-958 2126,-1915 3190,-2872m-6753 3026l-44 1818m-5337 -12229c94,-3659 3164,-6577 6823,-6483 3660,93 6577,3164 6484,6823l-155 6070 -2037 1949 206 -8039c66,-2579 -1991,-4743 -4570,-4809 -2579,-65 -4743,1991 -4809,4570l-307 12053m-1943 -49l308 -12085c94,-3659 3164,-6577 6823,-6483 3660,93 6577,3164 6484,6823l-155 6070 -2037 1949 206 -8039c66,-2579 -1991,-4743 -4570,-4809 -2579,-65 -4743,1991 -4809,4570"/>
    <path class="fil1" d="M20658 17884l250 -10700 -2 0 0 -6c23,-895 412,-1700 1019,-2277 605,-574 1429,-920 2326,-899l0 -2 6 0 0 0 0 2c900,23 1708,411 2283,1017 576,606 922,1432 899,2332l2 0 0 0 -2 0 -224 8761 1123 -1012 198 -7758 -2 0c29,-1147 -414,-2203 -1151,-2979 -739,-777 -1771,-1275 -2917,-1304 -1146,-29 -2202,415 -2979,1153 -776,738 -1273,1770 -1302,2917l-2 0 -308 12053 -1025 -26 308 -12053 -2 0c36,-1432 655,-2718 1622,-3637 965,-917 2281,-1469 3714,-1432 1433,36 2719,654 3637,1620 919,967 1471,2283 1434,3715l-2 -1 -173 6787 128 -115 857 -820 149 -5858 -2 0 0 0 2 0c43,-1686 -609,-3239 -1695,-4381 -1084,-1141 -2601,-1871 -4289,-1914l0 -1 0 0c-1687,-43 -3240,609 -4381,1693 -1142,1086 -1873,2603 -1916,4289l2 0 0 0 -308 12085 -1030 -27 309 -12084 0 0 2 0c50,-1973 901,-3744 2232,-5009 1332,-1266 3145,-2026 5116,-1976l1 0 0 0c1971,51 3743,903 5008,2235 1265,1330 2025,3143 1974,5116l2 0 0 0 -2 0 -155 6070 -158 358 -2036 1950 -43 -19 -2137 1924 -1723 1650 -445 -12 -557 -246 298 -11665 0 0c3,-116 -42,-222 -116,-300 -75,-79 -179,-129 -294,-132l0 0 0 -2 -6 0 0 0c-114,-1 -220,44 -299,119 -76,72 -125,171 -128,280l-1 7 0 0 -125 10083 -513 -7 513 13 -44 1818 -1025 -26 43 -1812 126 -10083 0 -4 0 -12 0 -2c10,-395 182,-749 449,-1001 265,-251 626,-403 1018,-398l4 0 12 0 2 -2 0 0c400,10 758,182 1014,452 256,269 410,636 399,1035l0 0 -266 10418 811 -775 248 -9742 -2 0 0 0 2 0c16,-614 -222,-1180 -619,-1597 -397,-418 -950,-685 -1563,-700l-1 2 0 0 -6 -1 1 -2c-613,-14 -1178,224 -1595,620 -414,393 -679,944 -695,1558l0 6 -2 0 -250 10699 -33 1318 -1026 -27 34 -1317z"/>
   </g>
   <g>
    <path class="fil0" d="M21398 21709l1428 -1125 7849 -6330c401,-323 996,-247 1314,158 318,405 247,996 -158,1314l-9178 7206 2564 299 7831 -6149c1191,-936 1400,-2675 465,-3867 -936,-1191 -2677,-1403 -3867,-465l-8403 6628 -1036 814 1191 1517z"/>
    <path class="fil1" d="M21385 21692l1428 -1124 7849 -6331 0 0 9 -7 0 -1c203,-159 454,-220 695,-190 240,29 470,149 632,350l0 0 8 10 0 0 0 0 0 0c163,207 226,462 196,705 -29,243 -151,476 -358,639l0 0 -9137 7174 2503 292 7824 -6144 0 0 0 0 0 0c591,-464 939,-1128 1022,-1823 84,-695 -96,-1423 -560,-2013l0 0 0 0 -4 -5 0 0c-463,-588 -1126,-935 -1820,-1018 -693,-84 -1419,95 -2008,557l-4 4 0 0 -8404 6628 -1036 814 -27 -34 1037 -814 8403 -6628 0 0 5 -3c598,-470 1335,-652 2039,-567 705,85 1378,437 1849,1035l0 0 4 4 0 0 0 0c471,601 654,1339 569,2045 -85,706 -438,1380 -1038,1852l0 0 0 0 0 0 -7831 6149 -16 4 -2563 -298 -11 -38 9178 -7207 0 0c198,-155 314,-377 342,-610 28,-233 -32,-476 -188,-674l0 0 0 0 0 0 -7 -9c-155,-192 -375,-307 -605,-335 -229,-28 -468,30 -662,182l0 0 -9 7 -7849 6331 -1 0 -1428 1125 -26 -34z"/>
    <path class="fil0" d="M20207 20192l1036 -814 8403 -6628c1190,-938 2931,-726 3867,465 935,1192 726,2931 -465,3867l-7831 6149 2892 427 6278 -4930c2030,-1593 2386,-4557 793,-6586 -1594,-2029 -4557,-2386 -6587,-792l-9483 7446 1097 1396z"/>
    <path class="fil1" d="M20193 20175l1037 -814 8403 -6628 0 0 5 -3c598,-470 1335,-652 2039,-567 705,85 1378,437 1849,1035l0 0 4 4 0 0 0 0c471,601 654,1339 569,2045 -85,706 -438,1380 -1038,1852l0 0 0 0 0 0 -7792 6118 2834 418 6271 -4923 0 0c1010,-793 1604,-1928 1747,-3116 143,-1188 -165,-2431 -958,-3441 -793,-1010 -1927,-1603 -3116,-1746 -1188,-143 -2430,165 -3440,958l0 0 -9483 7446 -27 -34 9483 -7446 0 0c1019,-800 2273,-1111 3473,-967 1199,144 2343,744 3144,1763 800,1019 1111,2273 966,3472 -144,1199 -743,2344 -1762,3144l0 0 -6278 4930 -8 5 -9 -1 -2892 -427 -50 -7 39 -31 7831 -6149 0 0 0 0 0 0c591,-464 939,-1128 1022,-1823 84,-695 -96,-1422 -560,-2013l0 0 0 0 -4 -5 0 0c-463,-588 -1126,-935 -1820,-1018 -694,-84 -1419,95 -2008,557l-4 4 0 0 -8404 6628 -1036 814 -27 -34z"/>
    <path class="fil0" d="M19110 18796l9483 -7446c2030,-1594 4993,-1237 6587,792 1593,2029 1237,4993 -793,6586l-6278 4930 1354 200 1400 163 4775 -3750c2879,-2261 3385,-6466 1125,-9345 -2261,-2879 -6466,-3385 -9345,-1124l-9508 7466 1200 1528z"/>
    <path class="fil1" d="M19097 18779l9483 -7446 0 0c1019,-800 2273,-1111 3473,-967 1199,144 2343,744 3144,1763 800,1019 1111,2273 966,3472 -144,1199 -743,2344 -1762,3144l0 0 -6239 4899 1303 193 1392 162 4768 -3745 0 0 0 0 0 0c1435,-1126 2278,-2738 2481,-4426 204,-1688 -234,-3454 -1360,-4888l0 0 0 -1c-1127,-1434 -2738,-2278 -4426,-2481 -1689,-203 -3454,234 -4889,1361l0 0 -9507 7466 -27 -34 9508 -7466 0 0c1444,-1134 3221,-1574 4920,-1369 1699,204 3320,1053 4454,2497l0 0 0 0c1134,1444 1575,3221 1370,4920 -204,1699 -1053,3321 -2497,4455l0 0 0 0 0 0 -4776 3750 -16 4 -1400 -163 0 0 -1354 -200 -49 -7 39 -31 6278 -4929 0 0c1010,-793 1604,-1928 1747,-3116 143,-1188 -165,-2431 -958,-3441 -793,-1010 -1927,-1603 -3116,-1746 -1188,-143 -2430,165 -3440,958l0 0 -9483 7446 -27 -34z"/>
    <path class="fil2" d="M21243 19378l8403 -6628c1190,-938 2931,-726 3867,465 935,1192 726,2931 -465,3867l-7831 6149 -2564 -299 9178 -7206c405,-318 476,-909 158,-1314 -318,-405 -913,-481 -1314,-158l-7849 6330m-2619 -392l1036 -814 -1036 814m5010 3039c1415,209 2830,418 4246,627m-6637 -3274l-1428 1125m6020 -11907c2879,-2261 7084,-1755 9345,1124 2260,2879 1754,7084 -1125,9345l-4775 3750 -2800 -326 6324 -4967c2030,-1593 2386,-4557 793,-6586 -1594,-2029 -4557,-2386 -6587,-792l-9483 7446m-1200 -1528l9508 -7466c2879,-2261 7084,-1755 9345,1124 2260,2879 1754,7084 -1125,9345l-4775 3750 -2800 -326 6324 -4967c2030,-1593 2386,-4557 793,-6586 -1594,-2029 -4557,-2386 -6587,-792"/>
    <path class="fil1" d="M20926 18975l8404 -6628 -1 -2 4 -3c705,-553 1573,-767 2404,-667 828,100 1620,515 2175,1219l2 -1 4 5 0 0 -2 1c556,708 772,1577 673,2407 -100,830 -516,1623 -1225,2179l2 2 0 0 -2 -2 -6892 5412 1495 221 6104 -4793 -2 -1c903,-709 1434,-1724 1562,-2787 128,-1065 -146,-2176 -855,-3078 -708,-902 -1723,-1432 -2787,-1560 -1064,-128 -2175,147 -3078,856l-1 -2 -9483 7446 -633 -806 9483 -7447 -1 -1c1126,-884 2511,-1228 3835,-1068 1323,159 2587,821 3472,1948 885,1128 1229,2512 1070,3835 -159,1325 -821,2589 -1948,3473l-1 -1 -5339 4192 170 25 1178 138 4609 -3619 -2 -2 0 0 2 2c1326,-1042 2107,-2534 2295,-4099 188,-1563 -217,-3197 -1259,-4525l0 0 0 0c-1043,-1328 -2534,-2108 -4097,-2296 -1565,-188 -3200,216 -4526,1257l1 2 0 0 -9508 7466 -636 -810 9508 -7466 0 0 1 2c1553,-1219 3460,-1692 5283,-1473 1824,219 3565,1131 4783,2682l0 0 0 1c1218,1551 1691,3459 1472,5283 -220,1823 -1132,3563 -2684,4782l1 2 0 0 -1 -2 -4776 3750 -376 107 -2800 -326 -13 -46 -2846 -420 -2369 -276 -274 -349 -166 -586 9178 -7207 0 0c91,-71 144,-174 157,-281 13,-108 -14,-220 -86,-310l0 0 2 -2 -4 -4 0 0c-71,-89 -174,-142 -282,-155 -104,-13 -212,13 -298,80l-5 4 0 0 -7849 6331 -322 -400 317 404 -1429 1124 -633 -806 1424 -1121 7849 -6331 3 -2 9 -8 2 -1c311,-244 693,-337 1058,-293 362,45 709,226 955,531l3 3 7 10 3 0 0 0c247,314 343,700 298,1069 -44,369 -229,721 -543,968l0 0 -8197 6436 1115 130 7664 -6018 -1 -2 0 0 1 1c483,-379 767,-923 836,-1495 68,-572 -78,-1168 -457,-1651l-2 1 0 0 -4 -4 2 -2c-380,-481 -923,-764 -1494,-833 -567,-69 -1160,78 -1643,457l-5 4 -1 -1 -8403 6627 -1037 814 -633 -806 1036 -814z"/>
   </g>
   <g>
    <path class="fil0" d="M19464 23419l1806 214 10026 1074c512,55 879,530 818,1041 -62,511 -530,879 -1041,817l-11586 -1393 1602 2023 9885 1189c1504,181 2882,-901 3063,-2405 181,-1503 -901,-2885 -2405,-3062l-10629 -1256 -1308 -157 -231 1915z"/>
    <path class="fil1" d="M19467 23398l1805 214 10027 1074 0 0 12 1 0 0c256,31 476,165 626,356 149,191 227,438 199,695l0 0 -1 13 0 0 0 0 0 0c-32,261 -167,486 -360,637 -193,152 -443,230 -705,199l0 0 -11534 -1388 1564 1976 9877 1188 0 0 0 0 0 0c746,90 1460,-134 2011,-566 551,-433 938,-1074 1028,-1820l0 0 0 0 0 -6 0 0c88,-744 -135,-1457 -567,-2007 -431,-550 -1070,-936 -1814,-1025l-6 -1 0 0 -10628 -1256 -1309 -157 5 -42 1309 157 10628 1255 1 0 5 1c756,91 1405,483 1843,1042 438,558 665,1283 576,2038l0 0 -1 6 0 0 0 0c-91,758 -484,1409 -1043,1849 -560,439 -1286,666 -2043,575l0 0 0 0 0 0 -9886 -1190 -14 -8 -1602 -2023 20 -35 11585 1394 0 0c250,30 489,-45 674,-189 184,-145 313,-360 343,-609l0 0 0 0 0 0 2 -12c26,-246 -49,-482 -191,-664 -142,-182 -353,-311 -597,-340l0 0 -12 -2 -10026 -1073 -1 0 -1805 -215 5 -42z"/>
    <path class="fil0" d="M19695 21504l1308 157 10629 1256c1504,177 2586,1559 2405,3062 -181,1504 -1559,2586 -3063,2405l-9885 -1189 1743 2348 7925 953c2562,308 4909,-1535 5218,-4097 308,-2561 -1536,-4909 -4097,-5217l-11971 -1440 -212 1762z"/>
    <path class="fil1" d="M19697 21483l1309 157 10628 1255 1 0 5 1c756,91 1405,483 1843,1042 438,558 665,1283 576,2038l0 0 -1 6 0 0 0 0c-91,758 -484,1409 -1043,1849 -560,439 -1286,666 -2043,575l0 0 0 0 0 0 -9837 -1184 1709 2301 7916 952 0 0c1275,153 2496,-229 3438,-968 941,-739 1602,-1836 1755,-3110 154,-1275 -228,-2497 -968,-3438 -739,-942 -1835,-1603 -3110,-1756l0 0 -11971 -1440 5 -43 11971 1441 0 0c1287,154 2393,821 3139,1771 746,950 1132,2183 977,3470 -155,1286 -822,2393 -1772,3139 -950,746 -2183,1131 -3469,976l0 0 -7925 -953 -10 -1 -5 -8 -1743 -2347 -30 -40 49 6 9886 1189 0 0 0 0 0 0c745,90 1460,-134 2011,-566 551,-433 938,-1074 1028,-1820l0 0 0 0 0 -6 0 0c88,-744 -135,-1457 -567,-2007 -431,-550 -1070,-936 -1814,-1025l-6 -1 0 0 -10628 -1256 -1309 -157 5 -42z"/>
    <path class="fil0" d="M19907 19742l11971 1440c2561,308 4405,2656 4097,5217 -309,2562 -2656,4405 -5218,4097l-7925 -953 816 1098 875 1105 6028 725c3634,438 6965,-2178 7402,-5812 438,-3634 -2178,-6966 -5812,-7403l-12002 -1444 -232 1930z"/>
    <path class="fil1" d="M19909 19720l11971 1441 0 0c1287,154 2393,821 3139,1771 746,950 1132,2183 977,3470 -155,1286 -822,2393 -1772,3139 -950,746 -2183,1131 -3469,976l0 0 -7876 -947 786 1058 869 1098 6019 724 0 0 1 0 0 0c1811,218 3546,-325 4884,-1375 1337,-1050 2276,-2608 2494,-4419l0 0 0 0c218,-1811 -325,-3547 -1375,-4884 -1050,-1338 -2607,-2277 -4419,-2494l0 -1 -12002 -1443 6 -43 12001 1444 1 0c1822,219 3390,1164 4447,2510 1057,1346 1603,3093 1384,4916l0 0 0 0c-220,1823 -1165,3391 -2511,4448 -1346,1057 -3093,1603 -4916,1384l0 0 0 0 0 0 -6028 -726 -14 -8 -875 -1105 0 0 -816 -1099 -30 -39 50 5 7925 954 0 0c1275,153 2496,-229 3438,-968 941,-739 1602,-1836 1755,-3110 154,-1275 -228,-2497 -968,-3438 -739,-942 -1835,-1603 -3110,-1756l0 0 -11971 -1440 5 -43z"/>
    <path class="fil2" d="M21003 21661l10629 1256c1504,177 2586,1559 2405,3062 -181,1504 -1559,2586 -3063,2405l-9885 -1189 -1602 -2023 11586 1393c511,62 979,-306 1041,-817 61,-511 -306,-986 -818,-1041l-10026 -1074m-1575 -2129l1308 157 -1308 -157m1394 5691c853,1149 1706,2297 2559,3446m-2378 -7008l-1806 -214m12677 -4163c3634,437 6250,3769 5812,7403 -437,3634 -3768,6250 -7402,5812l-6028 -725 -1750 -2210 7984 960c2562,308 4909,-1535 5218,-4097 308,-2561 -1536,-4909 -4097,-5217l-11971 -1440m232 -1930l12002 1444c3634,437 6250,3769 5812,7403 -437,3634 -3768,6250 -7402,5812l-6028 -725 -1750 -2210 7984 960c2562,308 4909,-1535 5218,-4097 308,-2561 -1536,-4909 -4097,-5217"/>
    <path class="fil1" d="M21065 21152l10628 1256 0 -2 6 0c890,107 1655,570 2172,1229 515,656 781,1509 676,2400l2 0 -1 6 0 0 -2 0c-108,894 -569,1661 -1227,2178 -657,516 -1512,782 -2406,675l0 2 0 0 0 -2 -8701 -1047 901 1213 7705 927 1 -2c1139,137 2232,-205 3074,-866 843,-662 1436,-1643 1573,-2781 136,-1138 -206,-2231 -869,-3075 -661,-842 -1641,-1433 -2781,-1570l0 -2 -11970 -1440 122 -1019 11971 1441 0 -2c1422,171 2644,908 3468,1957 823,1047 1248,2409 1077,3832 -172,1424 -908,2646 -1955,3469 -1049,823 -2412,1249 -3833,1078l0 -2 -6740 -811 103 139 735 929 5818 700 0 -2 0 0 0 2c1675,202 3282,-302 4521,-1275 1238,-972 2108,-2414 2309,-4090l0 0 0 0c202,-1676 -301,-3282 -1273,-4521 -973,-1239 -2415,-2109 -4089,-2311l0 2 -1 0 -12001 -1444 122 -1022 12002 1444 0 0 0 2c1960,236 3643,1250 4777,2694 1135,1445 1721,3321 1486,5279l0 0 0 0c-236,1958 -1251,3642 -2696,4777 -1444,1133 -3320,1719 -5279,1484l0 2 -1 0 1 -2 -6029 -726 -341 -191 -1750 -2210 23 -41 -1715 -2309 -1480 -1871 53 -441 298 -531 11585 1393 0 0c115,14 225,-20 310,-87 85,-67 145,-166 159,-280l0 0 2 0 0 -6 0 0c12,-113 -23,-223 -90,-309 -65,-83 -159,-141 -267,-154l-7 -1 0 0 -10026 -1074 55 -510 -61 510 -1806 -215 123 -1018 1799 214 10027 1073 4 1 11 1 2 0c393,48 729,252 955,542 225,287 343,661 301,1050l-1 4 -1 12 2 3 0 0c-48,396 -253,737 -545,966 -293,230 -672,348 -1069,301l0 0 -10347 -1245 696 879 9675 1164 1 -2 0 0 -1 2c610,74 1196,-110 1649,-466 453,-356 771,-881 844,-1491l-2 0 0 0 1 -6 2 0c71,-608 -113,-1193 -467,-1645 -353,-450 -876,-765 -1486,-839l-6 0 1 -2 -10629 -1256 -1308 -157 122 -1018 1309 157z"/>
   </g>
   <g>
    <path class="fil0" d="M16968 21630l1125 1428 6330 7849c323,401 247,996 -158,1314 -405,318 -996,247 -1314,-158l-7207 -9178 -298 2564 6149 7831c935,1191 2675,1400 3866,465 1192,-935 1403,-2677 465,-3866l-6627 -8404 -814 -1036 -1517 1191z"/>
    <path class="fil1" d="M16985 21617l1124 1428 6331 7849 0 0 7 9 0 0c160,204 221,454 191,695 -29,240 -149,470 -350,632l0 1 -10 7 0 0 0 0 0 0c-207,163 -462,226 -705,197 -244,-30 -476,-151 -639,-358l0 0 -7174 -9137 -292 2503 6144 7824 0 0 0 0 0 0c464,590 1127,938 1823,1022 695,83 1422,-97 2013,-561l0 0 0 0 5 -4 0 0c588,-463 934,-1126 1018,-1820 84,-693 -95,-1418 -558,-2007l-3 -5 0 0 -6628 -8404 -814 -1036 34 -26 814 1036 6627 8403 0 0 4 5c470,598 652,1335 567,2040 -86,704 -437,1377 -1035,1848l0 0 -4 4 0 0 0 0c-601,471 -1339,654 -2045,569 -706,-85 -1380,-438 -1852,-1038l0 0 0 0 0 0 -6149 -7831 -4 -16 298 -2563 38 -11 7207 9178 0 0c155,198 377,314 610,342 233,28 476,-32 674,-187l0 0 0 0 0 0 9 -8c192,-155 307,-375 335,-604 28,-230 -30,-469 -182,-663l0 0 -8 -9 -6330 -7849 0 0 -1125 -1429 34 -26z"/>
    <path class="fil0" d="M18485 20439l814 1036 6627 8404c938,1189 727,2931 -465,3866 -1191,935 -2931,726 -3866,-465l-6149 -7831 -427 2893 4929 6278c1594,2029 4558,2385 6587,792 2029,-1593 2385,-4557 792,-6586l-7446 -9483 -1396 1096z"/>
    <path class="fil1" d="M18502 20426l814 1036 6627 8403 0 0 4 5c470,598 652,1335 567,2040 -86,704 -437,1377 -1035,1848l0 0 -4 4 0 0 0 0c-601,471 -1339,654 -2045,569 -707,-85 -1381,-438 -1852,-1038l0 0 0 0 0 0 -6118 -7792 -419 2835 4924 6270 0 0c793,1010 1927,1604 3116,1747 1188,143 2431,-165 3440,-958 1010,-793 1604,-1927 1747,-3115 143,-1189 -165,-2431 -958,-3441l0 0 -7446 -9483 34 -27 7446 9483 0 0c800,1020 1111,2274 967,3473 -145,1199 -744,2343 -1763,3144 -1019,800 -2273,1111 -3472,966 -1200,-144 -2344,-743 -3144,-1762l0 0 -4930 -6278 -6 -8 2 -9 427 -2892 7 -50 31 40 6149 7831 0 0 0 0 0 0c464,590 1127,938 1823,1022 695,83 1422,-97 2013,-561l0 0 0 0 5 -4 0 0c588,-463 934,-1126 1018,-1820 84,-693 -95,-1418 -558,-2007l-3 -5 0 0 -6628 -8404 -814 -1036 34 -26z"/>
    <path class="fil0" d="M19881 19343l7446 9483c1593,2029 1237,4993 -792,6586 -2029,1593 -4993,1237 -6587,-792l-4929 -6278 -200 1353 -163 1400 3750 4775c2260,2879 6465,3385 9344,1125 2879,-2261 3385,-6466 1125,-9345l-7466 -9507 -1528 1200z"/>
    <path class="fil1" d="M19898 19329l7446 9483 0 0c800,1020 1111,2274 967,3473 -145,1199 -744,2343 -1763,3144 -1019,800 -2273,1111 -3472,966 -1200,-144 -2344,-743 -3144,-1762l0 0 -4899 -6239 -193 1303 -162 1392 3745 4768 0 0 0 0 0 0c1126,1435 2738,2279 4426,2482 1688,203 3453,-234 4888,-1361l0 0 0 0c1435,-1127 2279,-2738 2482,-4426 203,-1688 -235,-3454 -1361,-4889l0 0 -7466 -9507 34 -27 7466 9508 0 0c1134,1444 1574,3221 1369,4920 -204,1699 -1053,3321 -2497,4454l0 1 0 0c-1445,1134 -3221,1574 -4920,1369 -1699,-204 -3321,-1053 -4455,-2497l0 0 0 0 0 0 -3750 -4776 -4 -16 163 -1400 0 0 200 -1354 7 -49 31 39 4929 6278 0 0c793,1010 1927,1604 3116,1747 1188,143 2431,-165 3440,-958 1010,-793 1604,-1927 1747,-3115 143,-1189 -165,-2431 -958,-3441l0 0 -7446 -9483 34 -27z"/>
    <path class="fil2" d="M19299 21475l6627 8404c938,1189 727,2931 -465,3866 -1191,935 -2931,726 -3866,-465l-6149 -7831 298 -2564 7207 9178c318,405 909,476 1314,158 405,-318 481,-913 158,-1314l-6330 -7849m392 -2619l814 1036 -814 -1036m-3039 5010c-209,1415 -418,2830 -627,4246m3274 -6637l-1125 -1428m11907 6020c2260,2879 1754,7084 -1125,9345 -2879,2260 -7084,1754 -9344,-1125l-3750 -4775 326 -2800 4966 6325c1594,2029 4558,2385 6587,792 2029,-1593 2385,-4557 792,-6586l-7446 -9483m1528 -1200l7466 9507c2260,2879 1754,7084 -1125,9345 -2879,2260 -7084,1754 -9344,-1125l-3750 -4775 326 -2800 4966 6325c1594,2029 4558,2385 6587,792 2029,-1593 2385,-4557 792,-6586"/>
    <path class="fil1" d="M19702 21159l6628 8403 1 -1 4 4c553,705 767,1573 667,2405 -100,827 -515,1619 -1219,2175l1 1 -5 4 0 0 -1 -2c-708,556 -1578,773 -2407,673 -830,-100 -1623,-516 -2179,-1225l-2 2 0 0 2 -2 -5412 -6892 -221 1495 4793 6104 1 -1c709,902 1723,1433 2787,1561 1064,128 2176,-146 3078,-854 902,-708 1432,-1723 1560,-2788 128,-1063 -147,-2175 -856,-3077l2 -2 -7447 -9483 807 -633 7446 9483 2 -1c884,1126 1228,2511 1068,3836 -159,1322 -821,2586 -1949,3471 -1127,885 -2512,1229 -3834,1070 -1325,-159 -2589,-821 -3473,-1948l1 -1 -4193 -5339 -25 170 -137 1178 3619 4609 2 -1 0 0 -2 1c1042,1327 2534,2107 4099,2295 1563,188 3197,-217 4524,-1259l1 0 0 0c1327,-1043 2108,-2534 2296,-4097 188,-1565 -216,-3200 -1258,-4526l-1 1 0 0 -7466 -9508 810 -635 7466 9507 0 0 -2 2c1219,1552 1692,3459 1473,5282 -220,1824 -1131,3565 -2683,4784l0 0 0 0c-1551,1218 -3459,1690 -5283,1471 -1823,-219 -3564,-1132 -4782,-2684l-2 1 0 0 2 -1 -3750 -4775 -107 -377 326 -2800 45 -13 421 -2845 275 -2369 350 -275 586 -165 7207 9177 0 0c71,91 173,144 281,157 107,13 219,-14 310,-85l0 0 1 1 5 -4 0 0c89,-71 141,-174 155,-281 12,-105 -13,-213 -80,-299l-4 -5 0 0 -6331 -7849 400 -322 -404 317 -1125 -1428 807 -634 1121 1424 6331 7849 2 3 7 9 2 2c244,311 337,693 292,1058 -44,362 -225,709 -530,955l-3 3 -10 7 0 3 0 0c-314,247 -700,343 -1069,298 -369,-44 -721,-229 -968,-543l0 0 -6436 -8197 -130 1115 6018 7664 2 -1 0 0 -2 1c379,483 924,767 1496,836 571,69 1168,-78 1651,-457l-2 -2 0 0 5 -4 1 2c481,-379 765,-923 834,-1494 68,-567 -79,-1160 -458,-1643l-3 -4 1 -2 -6627 -8403 -815 -1037 807 -633 814 1037z"/>
   </g>
   <g>
    <path class="fil0" d="M15896 20110l-40 1818 -109 10083c-5,515 -443,926 -958,913 -514,-12 -925,-443 -913,-958l278 -11665 -1861 1788 -237 9954c-36,1514 1173,2782 2687,2818 1514,36 2786,-1173 2819,-2687l231 -10700 32 -1318 -1929 -46z"/>
    <path class="fil1" d="M15918 20111l-41 1817 -108 10083 0 0 -1 12 0 0c-6,259 -118,491 -294,658 -176,166 -414,268 -673,265l0 0 -12 0 0 0 0 0 0 0c-263,-7 -500,-120 -669,-297 -170,-178 -272,-420 -265,-683l0 0 276 -11614 -1817 1746 -237 9945 0 0 0 0 0 0c-17,751 274,1441 757,1948 483,507 1159,831 1910,849l0 -1 0 0 6 1 0 0c749,16 1437,-275 1943,-757 506,-482 829,-1155 847,-1904l0 -6 0 0 232 -10700 31 -1317 43 1 -31 1317 -232 10700 0 0 0 6c-18,761 -346,1444 -860,1934 -514,490 -1214,785 -1974,768l0 0 -6 0 0 0 0 0c-763,-18 -1449,-346 -1940,-861 -491,-515 -787,-1216 -768,-1979l0 0 0 0 0 0 236 -9954 7 -15 1861 -1788 36 16 -277 11666 0 0c-6,251 91,482 253,652 161,170 388,278 639,284l0 0 0 0 0 0 12 0c247,3 475,-94 643,-253 167,-160 275,-381 281,-628l0 0 0 -11 108 -10083 0 -1 41 -1817 43 1z"/>
    <path class="fil0" d="M17825 20156l-32 1318 -231 10700c-33,1514 -1305,2723 -2819,2687 -1514,-36 -2723,-1304 -2687,-2818l237 -9954 -2170 1960 -190 7980c-61,2579 1999,4739 4578,4801 2579,61 4740,-1999 4801,-4578l287 -12054 -1774 -42z"/>
    <path class="fil1" d="M17846 20157l-31 1317 -232 10700 0 0 0 6c-18,761 -346,1444 -860,1934 -514,490 -1214,785 -1974,768l0 0 -6 0 0 0 0 0c-763,-18 -1449,-347 -1940,-861 -491,-515 -787,-1216 -768,-1979l0 0 0 0 0 0 235 -9904 -2126 1921 -189 7970 0 0c-31,1284 467,2464 1293,3330 826,866 1980,1419 3264,1450 1283,30 2463,-467 3329,-1293 866,-826 1419,-1981 1450,-3265l0 1 287 -12054 42 1 -287 12054 1 0c-31,1295 -589,2460 -1463,3294 -874,833 -2065,1335 -3360,1304 -1296,-31 -2461,-589 -3295,-1463 -833,-874 -1335,-2064 -1304,-3360l0 0 190 -7980 0 -9 7 -6 2169 -1960 37 -34 -1 50 -237 9954 0 0 0 0 0 0c-17,751 274,1441 757,1948 483,507 1159,831 1910,849l0 -1 0 0 6 1 0 0c749,16 1437,-275 1943,-757 506,-482 829,-1155 847,-1904l0 -6 0 0 232 -10700 31 -1317 43 1z"/>
    <path class="fil0" d="M19599 20198l-287 12054c-61,2579 -2222,4639 -4801,4578 -2579,-62 -4639,-2222 -4578,-4801l190 -7980 -1015 917 -1016 977 -145 6070c-87,3659 2836,6725 6495,6812 3660,87 6725,-2836 6812,-6496l288 -12084 -1943 -47z"/>
    <path class="fil1" d="M19620 20199l-287 12054 1 0c-31,1295 -589,2460 -1463,3294 -874,833 -2065,1335 -3360,1304 -1296,-31 -2461,-589 -3295,-1463 -833,-874 -1335,-2064 -1304,-3360l0 0 189 -7930 -978 884 -1010 970 -144 6061 0 0 0 0 0 0c-44,1824 663,3500 1836,4731 1174,1230 2814,2016 4638,2059l0 0 0 0c1824,43 3499,-663 4730,-1837 1231,-1173 2016,-2813 2060,-4637l0 0 287 -12085 43 1 -287 12085 0 0c-44,1836 -835,3487 -2073,4667 -1239,1181 -2925,1893 -4761,1849l0 0 0 0c-1836,-44 -3487,-834 -4668,-2073 -1181,-1238 -1892,-2925 -1848,-4761l0 0 0 0 0 0 144 -6070 7 -15 1016 -976 1 -1 1015 -917 37 -33 -1 50 -190 7979 0 0c-31,1284 467,2464 1293,3330 826,866 1980,1419 3264,1450 1283,30 2463,-467 3329,-1293 866,-826 1419,-1981 1450,-3265l0 1 287 -12054 42 1z"/>
    <path class="fil2" d="M17793 21474l-231 10700c-33,1514 -1305,2723 -2819,2687 -1514,-36 -2723,-1304 -2687,-2818l237 -9954 1861 -1788 -278 11665c-12,515 399,946 913,958 515,13 953,-398 958,-913l109 -10083m1969 -1772l-32 1318 31 -1318m-5531 1933c-1062,959 -2123,1918 -3185,2877m6748 -3038l40 -1818m5358 12219c-87,3660 -3152,6583 -6812,6496 -3659,-87 -6582,-3153 -6495,-6812l145 -6070 2033 -1954 -192 8040c-61,2579 1999,4739 4578,4801 2579,61 4740,-1999 4801,-4578l287 -12054m1943 47l-288 12084c-87,3660 -3152,6583 -6812,6496 -3659,-87 -6582,-3153 -6495,-6812l145 -6070 2033 -1954 -192 8040c-61,2579 1999,4739 4578,4801 2579,61 4740,-1999 4801,-4578"/>
    <path class="fil1" d="M18306 21486l-232 10700 2 0 0 6c-21,895 -408,1701 -1015,2279 -603,575 -1427,922 -2324,903l0 2 -6 0 0 0 0 -2c-900,-22 -1708,-408 -2285,-1013 -577,-605 -924,-1430 -903,-2331l-2 0 0 0 2 0 209 -8761 -1121 1014 -185 7758 2 0c-27,1148 418,2202 1156,2977 741,777 1773,1272 2919,1299 1147,28 2201,-418 2978,-1158 775,-739 1269,-1772 1297,-2919l2 0 286 -12054 1026 24 -287 12054 2 0c-34,1432 -651,2719 -1616,3640 -964,919 -2279,1473 -3712,1439 -1433,-35 -2720,-650 -3639,-1614 -921,-966 -1475,-2281 -1441,-3712l2 0 161 -6787 -128 115 -855 822 -139 5858 2 0 0 0 -2 0c-40,1686 615,3238 1702,4378 1087,1139 2605,1867 4293,1907l0 0 0 0c1687,40 3238,-614 4378,-1701 1140,-1087 1868,-2605 1908,-4292l-2 0 0 0 288 -12085 1029 25 -287 12085 0 0 -2 0c-47,1973 -895,3746 -2224,5012 -1330,1268 -3141,2032 -5113,1985l0 0 0 0c-1972,-47 -3745,-896 -5013,-2226 -1266,-1328 -2029,-3139 -1982,-5112l-2 0 0 0 2 0 144 -6070 158 -359 2032 -1953 43 19 2135 -1928 1719 -1653 445 11 557 245 -277 11666 0 0c-3,115 42,221 117,300 74,78 178,128 294,131l0 0 0 2 6 0 0 0c113,1 219,-45 298,-119 76,-73 126,-172 128,-281l1 -7 0 0 108 -10083 513 6 -513 -12 41 -1818 1025 24 -41 1812 -108 10083 0 4 0 12 0 2c-10,395 -181,749 -448,1003 -264,251 -625,403 -1017,399l-4 0 -12 0 -2 2 0 0c-399,-10 -758,-181 -1014,-450 -257,-269 -411,-635 -401,-1035l0 0 247 -10419 -809 778 -231 9742 2 0 0 0 -2 0c-15,613 224,1179 622,1596 397,417 951,683 1565,697l0 -2 0 0 6 0 0 2c612,14 1177,-225 1593,-622 413,-394 677,-945 692,-1559l0 -6 2 0 232 -10700 31 -1317 1025 24 -31 1318z"/>
   </g>
   <g>
    <path class="fil0" d="M17293 17713l-1428 1125 -7849 6331c-401,323 -997,246 -1314,-158 -318,-405 -247,-996 158,-1314l9177 -7207 -2563 -298 -7831 6149c-1191,935 -1400,2675 -465,3866 935,1191 2677,1403 3866,465l8404 -6627 1036 -815 -1191 -1517z"/>
    <path class="fil1" d="M17306 17730l-1428 1125 -7849 6330 0 1 -9 7 0 0c-204,160 -454,220 -695,191 -240,-30 -470,-149 -633,-350l0 -1 -7 -9 0 0 0 0 0 0c-163,-207 -226,-462 -197,-705 30,-244 151,-477 358,-639l0 0 9137 -7175 -2503 -291 -7824 6144 0 0 0 0 0 0c-591,463 -938,1127 -1022,1822 -83,696 97,1423 561,2014l0 0 0 0 4 4 -1 1c464,588 1127,934 1821,1018 693,83 1418,-95 2007,-558l5 -4 0 0 8403 -6627 1037 -814 26 33 -1036 814 -8403 6628 0 0 -5 4c-598,470 -1335,651 -2040,566 -704,-85 -1377,-437 -1848,-1034l0 0 -4 -5 0 0 0 0c-471,-600 -654,-1339 -569,-2045 85,-706 438,-1380 1038,-1851l0 0 0 0 0 0 7831 -6149 16 -5 2563 299 11 38 -9178 7207 0 0c-198,155 -314,377 -342,610 -28,232 32,476 187,673l0 0 0 0 0 0 8 10c155,192 375,306 604,334 230,29 469,-29 663,-182l0 0 9 -7 7849 -6330 0 -1 1429 -1124 26 33z"/>
    <path class="fil0" d="M18484 19230l-1036 815 -8404 6627c-1189,938 -2931,726 -3866,-465 -935,-1191 -726,-2931 465,-3866l7831 -6149 -2893 -427 -6278 4929c-2029,1593 -2385,4557 -792,6586 1593,2029 4557,2386 6586,793l9483 -7447 -1096 -1396z"/>
    <path class="fil1" d="M18497 19247l-1036 814 -8403 6628 0 0 -5 4c-598,470 -1335,651 -2040,566 -704,-85 -1377,-437 -1848,-1034l0 0 -4 -5 0 0 0 0c-471,-600 -654,-1339 -569,-2045 85,-706 438,-1380 1038,-1851l0 0 0 0 0 0 7792 -6119 -2835 -418 -6270 4924 0 0c-1010,793 -1604,1927 -1747,3115 -143,1189 165,2431 958,3441 793,1010 1927,1604 3115,1747 1189,143 2431,-165 3441,-958l0 0 9483 -7446 27 33 -9484 7447 1 0c-1020,800 -2274,1111 -3473,966 -1199,-144 -2343,-743 -3144,-1762 -800,-1020 -1111,-2274 -967,-3473 145,-1199 744,-2343 1763,-3144l0 0 6278 -4929 7 -6 9 1 2893 427 49 8 -39 30 -7831 6150 0 0 0 0 0 0c-591,463 -938,1127 -1022,1822 -83,696 97,1423 561,2014l0 0 0 0 4 4 -1 1c464,588 1127,934 1821,1018 693,83 1418,-95 2007,-558l5 -4 0 0 8403 -6627 1037 -814 26 33z"/>
    <path class="fil0" d="M19580 20626l-9483 7447c-2029,1593 -4993,1236 -6586,-793 -1593,-2029 -1237,-4993 792,-6586l6278 -4929 -1353 -200 -1400 -163 -4776 3750c-2878,2260 -3384,6465 -1124,9344 2261,2879 6466,3385 9345,1124l9507 -7465 -1200 -1529z"/>
    <path class="fil1" d="M19594 20643l-9484 7447 1 0c-1020,800 -2274,1111 -3473,966 -1199,-144 -2343,-743 -3144,-1762 -800,-1020 -1111,-2274 -967,-3473 145,-1199 744,-2343 1763,-3144l0 0 6239 -4899 -1303 -192 -1392 -162 -4768 3744 0 0 0 0 0 0c-1435,1127 -2279,2738 -2482,4427 -203,1688 234,3453 1361,4888l0 0 0 0c1127,1435 2738,2278 4426,2481 1688,203 3454,-234 4888,-1360l1 0 9507 -7466 27 34 -9508 7465 0 0c-1444,1134 -3221,1574 -4920,1370 -1699,-204 -3321,-1053 -4455,-2498l0 0 0 0c-1134,-1444 -1574,-3221 -1369,-4920 204,-1699 1053,-3320 2497,-4454l0 0 0 0 0 0 4776 -3750 15 -5 1401 163 0 1 1353 199 50 8 -39 30 -6278 4930 0 0c-1010,793 -1604,1927 -1747,3115 -143,1189 165,2431 958,3441 793,1010 1927,1604 3115,1747 1189,143 2431,-165 3441,-958l0 0 9483 -7446 27 33z"/>
    <path class="fil2" d="M17448 20045l-8404 6627c-1189,938 -2931,726 -3866,-465 -935,-1191 -726,-2931 465,-3866l7831 -6149 2563 298 -9177 7207c-405,318 -476,909 -158,1314 317,404 913,481 1314,158l7849 -6331m2619 392l-1036 815 1036 -815m-5010 -3038c-1415,-209 -2831,-418 -4246,-627m6637 3273l1428 -1125m-6020 11907c-2879,2261 -7084,1755 -9345,-1124 -2260,-2879 -1754,-7084 1124,-9344l4776 -3750 2800 326 -6325 4966c-2029,1593 -2385,4557 -792,6586 1593,2029 4557,2386 6586,793l9483 -7447m1200 1529l-9507 7465c-2879,2261 -7084,1755 -9345,-1124 -2260,-2879 -1754,-7084 1124,-9344l4776 -3750 2800 326 -6325 4966c-2029,1593 -2385,4557 -792,6586 1593,2029 4557,2386 6586,793"/>
    <path class="fil1" d="M17764 20448l-8403 6627 1 2 -4 4c-705,553 -1573,767 -2405,666 -828,-99 -1619,-514 -2175,-1219l-1 2 -4 -5 0 0 2 -1c-557,-709 -773,-1578 -673,-2408 100,-829 516,-1622 1224,-2179l-1 -1 0 0 1 1 6893 -5412 -1495 -220 -6104 4792 1 2c-903,709 -1433,1723 -1561,2786 -128,1065 146,2177 854,3079 708,901 1723,1432 2788,1560 1063,128 2175,-147 3077,-856l2 1 9483 -7446 633 807 -9483 7446 1 2c-1126,884 -2511,1227 -3836,1068 -1322,-159 -2586,-822 -3471,-1949 -885,-1127 -1229,-2512 -1070,-3835 159,-1324 821,-2588 1947,-3473l2 2 5339 -4193 -170 -25 -1178 -137 -4609 3619 1 1 0 0 -1 -1c-1327,1042 -2107,2534 -2295,4098 -188,1563 216,3197 1259,4525l0 0 0 0c1043,1328 2534,2109 4097,2297 1565,188 3199,-216 4526,-1258l-1 -1 0 0 9507 -7466 636 810 -9507 7465 0 0 -2 -1c-1552,1219 -3459,1692 -5282,1473 -1824,-220 -3566,-1132 -4784,-2683l0 0 0 0c-1218,-1551 -1691,-3459 -1471,-5283 219,-1823 1132,-3564 2684,-4783l-2 -1 1 0 1 1 4775 -3750 377 -106 2800 326 13 45 2845 420 2369 276 275 350 165 586 -9177 7207 -1 0c-90,71 -144,173 -156,281 -13,107 14,219 85,310l0 0 -1 1 4 5 0 0c71,88 174,141 281,154 105,13 213,-12 299,-79l5 -5 0 0 7849 -6330 322 399 -317 -403 1428 -1125 634 807 -1424 1121 -7849 6330 -3 3 -9 7 -2 1c-311,245 -693,338 -1058,293 -362,-44 -710,-226 -955,-530l-3 -4 -7 -9 -3 0 0 -1c-247,-314 -343,-700 -298,-1068 44,-369 229,-721 543,-968l0 0 8197 -6436 -1115 -130 -7664 6018 1 2 0 0 -1 -2c-483,379 -767,924 -836,1495 -69,572 78,1169 457,1651l2 -1 0 0 4 5 -2 1c379,481 923,765 1494,834 567,68 1160,-79 1643,-458l4 -4 2 2 8403 -6628 1036 -814 634 807 -1037 814z"/>
   </g>
   <g>
    <path class="fil0" d="M18927 17111l-1793 -299 -9966 -1540c-508,-79 -853,-570 -768,-1078 85,-508 571,-853 1078,-768l11508 1933 -1505 -2096 -9819 -1649c-1494,-251 -2921,766 -3172,2259 -251,1494 765,2924 2259,3172l10559 1750 1299 218 320 -1902z"/>
    <path class="fil1" d="M18923 17132l-1793 -299 -9965 -1540 0 0 -12 -2 0 0c-255,-43 -469,-187 -609,-385 -140,-197 -206,-448 -167,-703l0 0 2 -12 0 -1 0 0 0 0c44,-259 190,-477 389,-620 200,-142 454,-209 714,-165l0 0 11456 1924 -1470 -2046 -9810 -1648 0 0 0 0 0 0c-741,-125 -1465,65 -2036,472 -570,406 -987,1029 -1111,1770l0 0 0 0 -1 6 0 0c-123,738 67,1462 473,2031 405,569 1025,985 1764,1109l6 1 0 0 10558 1750 1300 218 -7 42 -1300 -218 -10558 -1750 0 0 -6 -1c-750,-126 -1381,-548 -1792,-1126 -412,-579 -605,-1313 -480,-2064l0 0 1 -5 0 0 0 0c126,-753 549,-1386 1128,-1798 579,-413 1315,-606 2068,-479l0 0 0 0 0 0 9819 1649 14 8 1505 2097 -21 33 -11507 -1933 -1 0c-247,-41 -490,22 -681,158 -191,136 -330,345 -372,592l0 0 0 1 0 0 -2 11c-37,244 26,484 160,673 134,188 338,326 581,367l0 0 11 2 9966 1540 0 0 1793 299 -7 42z"/>
    <path class="fil0" d="M18607 19013l-1299 -218 -10559 -1750c-1494,-248 -2510,-1678 -2259,-3172 251,-1493 1678,-2510 3172,-2259l9819 1649 -1632 -2426 -7872 -1323c-2545,-427 -4976,1305 -5403,3849 -427,2545 1304,4976 3849,5403l11890 1998 294 -1751z"/>
    <path class="fil1" d="M18604 19034l-1300 -218 -10558 -1750 0 0 -6 -1c-750,-126 -1381,-548 -1792,-1126 -412,-579 -605,-1313 -480,-2064l0 0 1 -5 0 0 0 0c126,-753 549,-1386 1128,-1798 579,-413 1315,-606 2068,-479l0 0 0 0 0 0 9770 1641 -1599 -2378 -7863 -1320 0 0c-1266,-213 -2504,112 -3479,806 -975,695 -1686,1759 -1899,3025 -213,1266 112,2504 806,3479 695,975 1759,1686 3025,1899l0 0 11891 1997 -7 43 -11891 -1998 0 0c-1278,-214 -2352,-932 -3052,-1916 -701,-983 -1029,-2233 -814,-3511 214,-1278 932,-2352 1916,-3053 984,-701 2233,-1028 3511,-814l0 0 7872 1323 9 1 5 8 1632 2426 28 41 -49 -8 -9819 -1649 0 0 0 0 0 0c-741,-125 -1465,65 -2036,472 -570,406 -987,1029 -1111,1770l0 0 0 0 -1 6 0 0c-123,738 67,1462 473,2031 405,569 1025,985 1764,1109l6 1 0 0 10558 1750 1300 218 -7 42z"/>
    <path class="fil0" d="M18313 20764l-11890 -1998c-2545,-427 -4276,-2858 -3849,-5403 427,-2544 2858,-4276 5403,-3849l7872 1323 -764 -1135 -822 -1145 -5988 -1006c-3610,-606 -7060,1851 -7666,5461 -606,3610 1851,7059 5461,7666l11922 2002 321 -1916z"/>
    <path class="fil1" d="M18310 20785l-11891 -1998 0 0c-1278,-214 -2352,-932 -3052,-1916 -701,-983 -1029,-2233 -814,-3511 214,-1278 932,-2352 1916,-3053 984,-701 2233,-1028 3511,-814l0 0 7823 1314 -735 -1093 -817 -1138 -5980 -1004 0 0 0 0 0 0c-1799,-302 -3558,159 -4943,1146 -1385,986 -2395,2498 -2698,4297l0 0 0 1c-302,1799 159,3558 1146,4943 987,1385 2499,2395 4298,2697l0 0 11921 2003 -7 42 -11921 -2002 -1 0c-1810,-304 -3332,-1322 -4325,-2716 -993,-1393 -1457,-3164 -1153,-4975l0 0 0 0c304,-1811 1321,-3332 2715,-4325 1394,-993 3165,-1457 4975,-1153l0 0 1 0 -1 0 5988 1006 14 8 822 1145 1 1 763 1135 28 41 -49 -8 -7872 -1322 0 0c-1266,-213 -2504,112 -3479,806 -975,695 -1686,1759 -1899,3025 -213,1266 112,2504 806,3479 695,975 1759,1686 3025,1899l0 0 11891 1997 -7 43z"/>
    <path class="fil2" d="M17308 18795l-10559 -1750c-1494,-248 -2510,-1678 -2259,-3172 251,-1493 1678,-2510 3172,-2259l9819 1649 1505 2096 -11508 -1933c-507,-85 -993,260 -1078,768 -85,508 260,999 768,1078l9966 1540m1473 2201l-1299 -218 1299 218m-1126 -5750c-799,-1187 -1597,-2374 -2396,-3561m2049 7110l1793 299m-12857 3567c-3610,-607 -6067,-4056 -5461,-7666 606,-3610 4056,-6067 7666,-5461l5988 1006 1644 2289 -7930 -1332c-2545,-427 -4976,1305 -5403,3849 -427,2545 1304,4976 3849,5403l11890 1998m-321 1916l-11922 -2002c-3610,-607 -6067,-4056 -5461,-7666 606,-3610 4056,-6067 7666,-5461l5988 1006 1644 2289 -7930 -1332c-2545,-427 -4976,1305 -5403,3849 -427,2545 1304,4976 3849,5403"/>
    <path class="fil1" d="M17223 19301l-10559 -1750 0 2 -6 -1c-883,-149 -1626,-647 -2112,-1329 -483,-679 -710,-1544 -563,-2429l-2 0 1 -6 0 0 2 0c149,-888 646,-1633 1327,-2118 681,-485 1547,-711 2435,-562l1 -2 0 0 -1 2 8643 1452 -844 -1254 -7653 -1286 0 2c-1133,-190 -2240,100 -3112,722 -873,622 -1511,1574 -1701,2704 -189,1131 102,2239 724,3112 621,872 1573,1509 2705,1699l0 2 11890 1997 -170 1011 -11890 -1997 0 2c-1413,-237 -2599,-1030 -3373,-2117 -773,-1085 -1134,-2465 -897,-3879 238,-1413 1030,-2600 2115,-3373 1086,-774 2467,-1135 3879,-898l0 2 6695 1124 -97 -143 -691 -963 -5779 -970 0 2 0 0 0 -2c-1664,-280 -3292,148 -4576,1062 -1282,914 -2218,2313 -2497,3978l0 0 0 0c-280,1665 147,3293 1061,4575 914,1284 2314,2220 3977,2500l0 -2 0 0 11922 2002 -171 1016 -11921 -2003 0 0 0 -2c-1946,-327 -3581,-1418 -4646,-2913 -1066,-1497 -1564,-3398 -1237,-5343l0 0 0 -1c326,-1945 1419,-3579 2915,-4645 1495,-1065 3396,-1563 5343,-1236l0 -2 0 0 0 2 5988 1006 332 207 1645 2290 -25 39 1605 2387 1391 1937 -73 439 -322 517 -11508 -1933 0 0c-114,-19 -225,10 -314,73 -88,63 -152,159 -171,272l0 0 -2 0 -1 6 0 0c-17,112 13,224 75,312 61,86 153,149 260,167l7 1 0 0 9966 1541 -79 506 84 -505 1794 298 -170 1012 -1787 -298 -9966 -1540 -4 -1 -12 -2 -2 0c-390,-66 -716,-285 -928,-585 -211,-298 -311,-677 -251,-1064l0 -4 2 -12 -1 -2 0 0c66,-394 287,-725 589,-940 303,-216 687,-317 1081,-251l0 0 10278 1727 -654 -912 -9610 -1614 -1 2 0 0 1 -2c-606,-101 -1200,55 -1669,389 -469,335 -811,845 -913,1450l2 0 0 0 -1 6 -2 0c-100,604 57,1197 390,1666 331,465 839,805 1445,906l6 1 -1 2 10559 1750 1299 218 -170 1012 -1299 -218z"/>
   </g>
   <g>
    <g>
     <path class="fil0" d="M16291 18508l-435 343 -7849 6330c-400,323 -996,247 -1314,-158 -87,-111 -145,-237 -175,-367l-1571 1234c66,113 140,224 223,330 935,1191 2677,1403 3866,465l8404 -6628 42 -33 -1191 -1516z"/>
     <path class="fil1" d="M16305 18525l-435 342 -7849 6331 0 0 -10 7 0 1c-203,159 -454,220 -694,190 -240,-29 -470,-149 -633,-350l0 0 -7 -10 0 0 -1 0c-87,-111 -145,-236 -176,-365l37 -30c28,131 86,257 173,369l0 0 0 0 8 9c155,193 375,307 604,335 230,28 469,-30 663,-182l0 0 9 -7 7849 -6331 0 0 435 -343 27 34zm-11375 7378l34 -27c65,114 139,224 223,330l0 0 0 0 3 5 0 0c464,588 1127,935 1820,1018 694,84 1419,-95 2008,-557l5 -4 0 0 8403 -6628 42 -33 27 34 -42 33 -8404 6628 0 0 -4 3c-599,470 -1335,652 -2040,567 -704,-85 -1377,-437 -1848,-1035l0 0 -4 -4 0 0 0 0c-83,-106 -157,-216 -223,-330z"/>
     <path class="fil0" d="M17482 20024l-42 33 -8404 6628c-1189,938 -2931,726 -3866,-465 -83,-106 -157,-217 -223,-330l-1571 1233c41,58 83,114 127,170 1593,2029 4557,2386 6586,792l8489 -6665 -1096 -1396z"/>
     <path class="fil1" d="M17495 20041l-42 33 -8404 6628 0 0 -4 3c-599,470 -1335,652 -2040,567 -704,-85 -1377,-437 -1848,-1035l0 0 -4 -4 0 0c-83,-106 -157,-216 -223,-330l34 -27c65,114 139,224 223,330l0 0 3 5 0 0c464,588 1127,935 1820,1018 694,84 1419,-95 2008,-557l5 -4 0 0 8403 -6628 42 -33 27 34zm-14102 7069c41,57 83,114 127,170l0 0 0 0c793,1010 1927,1603 3115,1746 1188,143 2431,-165 3441,-958l0 0 0 0 8488 -6665 27 34 -8489 6665 0 0 0 0c-1019,800 -2273,1111 -3472,967 -1199,-145 -2344,-744 -3144,-1763l0 0 0 0c-44,-56 -86,-112 -127,-169l34 -27z"/>
     <path class="fil0" d="M18578 21420l-8489 6665c-2029,1594 -4993,1237 -6586,-792 -44,-56 -86,-112 -127,-170l-1571 1234c37,51 76,102 115,152 2261,2879 6466,3384 9345,1124l8513 -6685 -1200 -1528z"/>
     <path class="fil1" d="M18591 21437l-8489 6665 0 0 0 0c-1019,800 -2273,1111 -3472,967 -1199,-145 -2344,-744 -3144,-1763l0 0 0 0c-44,-56 -86,-112 -127,-169l34 -27c41,57 83,114 127,170l0 0 0 0c793,1010 1927,1603 3115,1746 1188,143 2431,-165 3441,-958l0 0 0 0 8488 -6665 27 34zm-16769 6907c37,51 76,101 115,151 1127,1435 2738,2279 4426,2482 1688,203 3454,-234 4888,-1361l8514 -6685 26 34 -8513 6685c-1444,1134 -3221,1574 -4920,1369 -1699,-204 -3321,-1053 -4455,-2497 -39,-50 -78,-101 -115,-151l34 -27z"/>
     <path class="fil2" d="M17440 20057l-8404 6628c-1189,938 -2931,726 -3866,-465 -83,-106 -157,-217 -223,-330m1571 -1234c30,130 88,256 175,367 318,405 914,481 1314,158l7849 -6330m1626 1173l-42 33 42 -33m-1626 -1173l435 -343m-5026 11125c-2879,2260 -7084,1755 -9345,-1124 -39,-50 -78,-101 -115,-152m1571 -1234c41,58 83,114 127,170 1593,2029 4557,2386 6586,792l8489 -6665m1200 1528l-8513 6685c-2879,2260 -7084,1755 -9345,-1124 -39,-50 -78,-101 -115,-152m1571 -1234c41,58 83,114 127,170 1593,2029 4557,2386 6586,792"/>
     <path class="fil1" d="M17756 20460l-8403 6628 1 2 -5 3c-704,553 -1572,767 -2404,667 -828,-100 -1619,-515 -2175,-1219l-1 1 -4 -5 0 0c-83,-105 -158,-214 -226,-327l819 -642c61,115 133,227 217,334l0 0 3 4 -1 2c379,481 923,764 1494,833 566,68 1160,-78 1643,-457l4 -4 1 1 8404 -6627 42 -33 633 806 -42 33zm-13975 6345c41,58 83,114 127,170l0 0 0 0c709,903 1723,1434 2786,1561 1063,128 2174,-147 3077,-856l0 0 1 2 8489 -6665 633 806 -8488 6666 1 1 0 0c-1126,884 -2512,1228 -3836,1068 -1324,-159 -2589,-821 -3473,-1947l0 0 0 0c-44,-56 -86,-112 -127,-169l810 -637zm-1571 1234c37,51 76,102 115,152 1042,1327 2534,2108 4097,2296 1565,188 3199,-216 4526,-1257l8513 -6685 633 806 -8513 6685c-1552,1219 -3459,1692 -5282,1473 -1824,-219 -3566,-1131 -4784,-2682 -39,-50 -78,-101 -115,-152l810 -636zm4862 -3818c-32,53 -52,113 -60,174 -13,107 15,220 86,310l0 0 -1 2 4 4 0 0c71,89 173,142 281,155 105,13 212,-13 298,-80l6 -4 0 0 7849 -6331 321 400 -316 -404 435 -342 633 807 -430 338 -7849 6331 -3 2 -10 8 -1 1c-311,244 -693,337 -1058,293 -362,-45 -710,-226 -956,-531l-2 -3 -8 -10 -2 0 -1 0c-84,-108 -151,-225 -201,-346l985 -774z"/>
    </g>
    <g>
     <path class="fil0" d="M22315 20946l435 -343 7849 -6331c401,-323 996,-246 1314,159 88,111 146,237 175,367l1571 -1234c-65,-113 -139,-224 -222,-330 -936,-1191 -2678,-1403 -3867,-465l-8403 6628 -42 33 1190 1516z"/>
     <path class="fil1" d="M22302 20929l435 -343 7849 -6330 0 0 9 -8 0 0c203,-159 454,-220 695,-191 240,30 470,149 632,351l0 0 8 9 0 0 0 0c87,112 146,236 177,366l-37 29c-29,-130 -86,-256 -174,-368l0 0 0 0 -7 -10c-155,-192 -375,-306 -605,-334 -229,-28 -468,30 -662,182l0 0 -9 7 -7850 6331 0 0 -435 342 -26 -33zm11374 -7378l-34 26c-65,-113 -139,-224 -222,-330l0 0 0 0 -4 -4 0 0c-464,-588 -1126,-935 -1820,-1019 -694,-83 -1419,96 -2008,558l-4 4 0 0 -8404 6627 -42 34 -26 -34 42 -33 8403 -6628 0 0 5 -4c598,-469 1335,-651 2039,-566 705,85 1378,437 1849,1034l0 0 4 5 0 0 0 0c83,106 157,216 222,330z"/>
     <path class="fil0" d="M21125 19430l42 -33 8403 -6628c1189,-938 2931,-726 3867,465 83,106 157,217 222,330l1571 -1234c-41,-57 -83,-113 -126,-169 -1594,-2029 -4557,-2386 -6587,-792l-8488 6665 1096 1396z"/>
     <path class="fil1" d="M21112 19413l42 -33 8403 -6628 0 0 5 -4c598,-469 1335,-651 2039,-566 705,85 1378,437 1849,1034l0 0 4 5 0 0c83,106 157,216 222,330l-34 26c-65,-113 -139,-224 -222,-330l0 0 -4 -4 0 0c-464,-588 -1126,-935 -1820,-1019 -694,-83 -1419,96 -2008,558l-4 4 0 0 -8404 6627 -42 34 -26 -34zm14102 -7069c-41,-58 -83,-114 -127,-170l0 0 0 0c-793,-1010 -1927,-1603 -3116,-1746 -1188,-143 -2430,164 -3440,957l0 0 0 0 -8489 6666 -26 -34 8488 -6665 0 0 0 0c1019,-801 2273,-1111 3473,-967 1199,144 2343,743 3143,1763l0 0 1 0c43,55 86,112 126,169l-33 27z"/>
     <path class="fil0" d="M20029 18034l8488 -6665c2030,-1594 4993,-1237 6587,792 43,56 85,112 126,169l1572 -1233c-38,-51 -76,-102 -116,-152 -2260,-2879 -6465,-3385 -9344,-1124l-8513 6685 1200 1528z"/>
     <path class="fil1" d="M20016 18017l8488 -6665 0 0 0 0c1019,-801 2273,-1111 3473,-967 1199,144 2343,743 3143,1763l0 0 1 0c43,55 86,112 126,169l-33 27c-41,-58 -83,-114 -127,-170l0 0 0 0c-793,-1010 -1927,-1603 -3116,-1746 -1188,-143 -2430,164 -3440,957l0 0 0 0 -8489 6666 -26 -34zm16769 -6907c-38,-51 -76,-102 -115,-152 -1127,-1435 -2738,-2278 -4427,-2481 -1688,-203 -3453,234 -4888,1361l-8513 6684 -27 -33 8514 -6685c1444,-1134 3221,-1574 4920,-1370 1699,205 3320,1054 4454,2498 40,50 78,100 116,151l-34 27z"/>
     <path class="fil2" d="M21167 19397l8403 -6628c1189,-938 2931,-726 3867,465 83,106 157,217 222,330m-1571 1234c-29,-130 -87,-256 -175,-367 -318,-405 -913,-482 -1314,-159l-7849 6331m-1625 -1173l42 -33 -42 33m1625 1173l-435 343m5027 -11125c2879,-2261 7084,-1755 9344,1124 40,50 78,101 116,152m-1572 1233c-41,-57 -83,-113 -126,-169 -1594,-2029 -4557,-2386 -6587,-792l-8488 6665m-1200 -1528l8513 -6685c2879,-2261 7084,-1755 9344,1124 40,50 78,101 116,152m-1572 1233c-41,-57 -83,-113 -126,-169 -1594,-2029 -4557,-2386 -6587,-792"/>
     <path class="fil1" d="M20850 18993l8404 -6627 -2 -2 5 -4c705,-553 1573,-767 2404,-666 828,100 1620,514 2175,1219l2 -1 4 4 0 0c82,106 158,215 226,327l-819 643c-61,-116 -134,-227 -217,-334l0 0 -4 -5 2 -1c-380,-481 -924,-764 -1494,-833 -567,-69 -1160,78 -1643,457l-5 4 -1 -2 -8403 6628 -42 33 -634 -807 42 -33zm13975 -6345c-40,-57 -82,-113 -126,-169l0 0 0 0c-709,-903 -1723,-1434 -2787,-1562 -1063,-128 -2174,147 -3077,856l0 0 -1 -1 -8489 6665 -633 -806 8489 -6666 -1 -1 0 0c1126,-885 2511,-1228 3835,-1069 1325,160 2589,822 3473,1948l0 0 1 0c43,56 86,112 127,169l-811 636zm1572 -1233c-38,-51 -76,-102 -115,-152 -1043,-1328 -2534,-2108 -4097,-2296 -1565,-189 -3200,215 -4527,1257l-8513 6685 -633 -807 8513 -6684c1552,-1219 3460,-1693 5283,-1473 1824,219 3565,1131 4783,2682 40,50 78,101 116,151l-810 637zm-4862 3817c32,-53 52,-112 59,-173 13,-108 -15,-220 -86,-310l0 -1 2 -1 -4 -5 0 0c-71,-88 -174,-141 -282,-154 -104,-13 -212,12 -298,80l-5 4 0 0 -7850 6331 -321 -400 317 403 -435 343 -634 -807 431 -339 7849 -6330 3 -3 9 -7 2 -1c311,-244 693,-338 1058,-293 362,44 709,226 955,531l2 3 8 9 3 1 0 0c85,108 152,224 201,346l-984 773z"/>
    </g>
    <g>
     <polygon class="fil0" points="17705,24577 19133,23452 26982,17122 26982,17122 25860,15692 17550,22246 16514,23060 "/>
     <path class="fil1" d="M17692 24560l1428 -1124 7849 -6331 0 0 0 0 27 34 -7849 6330 -1 0 -1428 1125 -26 -34zm8181 -8851l-8310 6554 -1036 814 -27 -34 1037 -814 8310 -6554 26 34z"/>
     <polygon class="fil0" points="16514,23060 17550,22246 25860,15692 24778,14314 15418,21664 "/>
     <path class="fil1" d="M16500 23043l1037 -814 8310 -6554 26 34 -8310 6554 -1036 814 -27 -34zm8291 -8712l-9360 7350 -27 -34 9361 -7350 26 34z"/>
     <polygon class="fil0" points="15418,21664 24778,14314 23578,12786 14217,20136 "/>
     <path class="fil1" d="M15404 21647l9361 -7350 26 34 -9360 7350 -27 -34zm8187 -8844l-9360 7350 -27 -34 9360 -7350 27 34z"/>
     <path class="fil2" d="M17550 22246l8310 -6554m1122 1430l0 0 -7849 6330m-2619 -392l1036 -814 -1036 814m2619 392l-1428 1125m7073 -10263l-9360 7350m-1201 -1528l9361 -7350"/>
     <path class="fil1" d="M17233 21843l8310 -6554 634 807 -8310 6553 -1037 815 -633 -807 1036 -814zm7861 -7125l-9360 7349 -633 -806 9360 -7350 633 807zm-1198 -1527l-9361 7350 -636 -810 9361 -7350 636 810zm-5254 12205l0 0 9178 -7207 -9178 7207zm8657 -7871l-7844 6327 -322 -400 317 404 -1428 1124 -634 -806 1424 -1121 7849 -6331 3 -2 2 -1 633 806z"/>
    </g>
   </g>
   <g>
    <g>
     <path class="fil0" d="M17727 22618l342 435 6331 7849c323,401 246,996 -158,1314 -112,88 -237,146 -367,175l1233 1571c114,-65 224,-139 330,-222 1191,-936 1403,-2677 465,-3866l-6627 -8404 -34 -42 -1515 1190z"/>
     <path class="fil1" d="M17744 22605l342 435 6330 7849 1 0 7 9 0 0c160,204 220,454 191,695 -30,240 -149,470 -350,632l0 0 -10 8 0 0 0 0c-111,87 -236,146 -366,177l-29 -37c131,-29 257,-86 368,-174l0 0 0 0 10 -7c192,-155 306,-375 334,-605 29,-229 -29,-468 -182,-662l0 0 -7 -9 -6330 -7849 -1 -1 -342 -435 34 -26zm7377 11374l-26 -34c114,-65 224,-139 330,-222l0 0 0 0 4 -4 1 0c588,-463 934,-1126 1018,-1820 84,-693 -95,-1418 -558,-2008l-4 -4 0 0 -6627 -8404 -33 -42 33 -26 33 42 6628 8403 0 0 4 5c470,598 651,1335 566,2039 -85,705 -437,1378 -1034,1849l0 0 -5 4 0 0 0 0c-106,83 -216,157 -330,222z"/>
     <path class="fil0" d="M19242 21428l34 42 6627 8404c938,1189 726,2930 -465,3866 -106,83 -216,157 -330,222l1234 1572c57,-41 114,-83 169,-127 2029,-1594 2386,-4557 793,-6586l-6666 -8489 -1396 1096z"/>
     <path class="fil1" d="M19259 21415l33 42 6628 8403 0 0 4 5c470,598 651,1335 566,2039 -85,705 -437,1378 -1034,1849l0 0 -5 4 0 0c-106,83 -216,157 -330,222l-26 -34c113,-65 224,-139 330,-222l0 0 4 -4 1 0c588,-463 934,-1126 1018,-1820 84,-693 -95,-1418 -558,-2008l-4 -4 0 0 -6627 -8404 -33 -42 33 -26zm7070 14102c57,-41 113,-83 169,-127l0 0 0 0c1010,-793 1604,-1927 1747,-3115 143,-1189 -165,-2431 -958,-3441l0 0 0 0 -6665 -8489 33 -26 6666 8488 0 0 0 0c800,1020 1111,2273 966,3473 -144,1199 -743,2343 -1762,3144l0 0 0 0c-56,43 -113,86 -170,127l-26 -34z"/>
     <path class="fil0" d="M20638 20332l6666 8489c1593,2029 1236,4992 -793,6586 -55,44 -112,86 -169,127l1234 1571c51,-38 101,-76 151,-115 2879,-2261 3385,-6466 1124,-9345l-6684 -8513 -1529 1200z"/>
     <path class="fil1" d="M20655 20319l6666 8488 0 0 0 0c800,1020 1111,2274 966,3473 -144,1199 -743,2343 -1762,3144l0 0 0 0c-56,43 -113,86 -170,127l-26 -34c57,-41 113,-83 169,-127l0 0 0 0c1010,-793 1604,-1927 1747,-3115 143,-1189 -165,-2431 -958,-3441l0 0 0 0 -6665 -8489 33 -26zm6908 16769c50,-38 101,-76 151,-115 1435,-1127 2278,-2738 2481,-4426 203,-1689 -234,-3454 -1360,-4889l-6685 -8513 33 -26 6685 8513c1134,1444 1574,3221 1370,4920 -205,1699 -1053,3321 -2498,4454 -50,40 -100,78 -151,116l-26 -34z"/>
     <path class="fil2" d="M19276 21470l6627 8404c938,1189 726,2930 -465,3866 -106,83 -216,157 -330,222m-1233 -1571c130,-29 255,-87 367,-175 404,-318 481,-913 158,-1314l-6331 -7849m1173 -1625l34 42 -34 -42m-1173 1625l-342 -435m11124 5027c2261,2879 1755,7084 -1124,9345 -50,39 -100,77 -151,115m-1234 -1571c57,-41 114,-83 169,-127 2029,-1594 2386,-4557 793,-6586l-6666 -8489m1529 -1200l6684 8513c2261,2879 1755,7084 -1124,9345 -50,39 -100,77 -151,115m-1234 -1571c57,-41 114,-83 169,-127 2029,-1594 2386,-4557 793,-6586"/>
     <path class="fil1" d="M19679 21153l6627 8404 2 -1 4 4c553,705 767,1573 666,2405 -100,827 -514,1619 -1219,2174l2 2 -5 4 0 0c-106,83 -215,158 -327,226l-643 -819c116,-61 228,-133 334,-217l0 0 5 -4 1 2c481,-379 765,-923 834,-1494 68,-567 -79,-1160 -458,-1643l-4 -5 2 -1 -6628 -8403 -33 -42 807 -634 33 42zm6345 13975c57,-40 114,-82 169,-126l0 0 0 0c903,-709 1434,-1723 1562,-2786 128,-1063 -147,-2175 -856,-3077l0 -1 1 -1 -6665 -8488 807 -634 6665 8489 2 -1 0 0c884,1126 1227,2511 1068,3836 -159,1324 -821,2588 -1948,3473l0 0 0 0c-55,43 -112,86 -169,127l-636 -811zm1234 1572c51,-38 101,-76 151,-115 1328,-1043 2109,-2534 2297,-4097 188,-1565 -216,-3200 -1258,-4526l-6685 -8513 807 -634 6685 8513c1218,1553 1692,3460 1473,5283 -220,1824 -1132,3565 -2683,4783 -50,40 -100,78 -151,116l-636 -810zm-3818 -4862c53,32 112,52 174,59 107,13 219,-14 310,-86l0 0 1 2 5 -4 0 0c88,-71 141,-174 154,-282 13,-104 -12,-212 -79,-298l-5 -5 0 0 -6330 -7849 399 -322 -403 317 -343 -435 807 -633 339 430 6330 7849 3 3 7 9 1 2c245,311 338,693 293,1058 -44,362 -225,709 -530,955l-3 3 -10 7 0 3 0 0c-109,85 -225,152 -347,202l-773 -985z"/>
    </g>
    <g>
     <path class="fil0" d="M20164 16595l-343 -435 -6330 -7849c-323,-401 -247,-997 158,-1314 111,-88 237,-146 367,-176l-1233 -1570c-114,65 -224,139 -330,222 -1192,935 -1403,2677 -466,3866l6628 8404 33 42 1516 -1190z"/>
     <path class="fil1" d="M20147 16608l-342 -435 -6331 -7849 0 0 -7 -10 0 0c-160,-203 -221,-453 -191,-694 29,-240 149,-470 350,-632l0 -1 10 -7 0 0 0 0c111,-88 236,-146 365,-177l30 37c-131,28 -257,86 -369,173l0 0 0 0 -9 8c-192,155 -307,375 -335,604 -28,230 30,469 182,663l0 0 8 9 6330 7849 0 0 343 435 -34 27zm-7378 -11374l27 33c-114,66 -224,140 -330,223l0 0 0 0 -5 4 0 -1c-588,464 -934,1127 -1018,1821 -84,693 95,1418 558,2007l3 5 0 0 6628 8403 33 43 -34 26 -33 -42 -6627 -8404 0 1 -4 -5c-470,-598 -652,-1335 -567,-2040 86,-704 437,-1377 1035,-1848l0 0 4 -4 0 0 1 0c105,-83 216,-157 329,-222z"/>
     <path class="fil0" d="M18648 17785l-33 -42 -6628 -8404c-937,-1189 -726,-2931 466,-3866 106,-83 216,-157 330,-222l-1234 -1572c-57,41 -114,83 -170,127 -2029,1593 -2385,4557 -792,6586l6665 8489 1396 -1096z"/>
     <path class="fil1" d="M18631 17798l-33 -42 -6627 -8404 0 1 -4 -5c-470,-598 -652,-1335 -567,-2040 86,-704 437,-1377 1035,-1848l0 0 4 -4 0 0c106,-83 217,-157 330,-223l27 35c-114,65 -224,139 -330,222l0 0 -5 4 0 -1c-588,464 -934,1127 -1018,1821 -84,693 95,1418 558,2007l3 5 0 0 6628 8403 33 43 -34 26zm-7069 -14102c-57,41 -114,83 -169,127l0 0 0 0c-1010,793 -1604,1927 -1747,3115 -143,1189 165,2431 958,3441l0 0 0 0 6665 8489 -33 26 -6666 -8489 0 0 0 0c-800,-1019 -1111,-2273 -967,-3472 145,-1199 744,-2344 1763,-3144l0 0 0 0c56,-44 112,-86 169,-127l27 34z"/>
     <path class="fil0" d="M17252 18881l-6665 -8489c-1593,-2029 -1237,-4993 792,-6586 56,-44 113,-86 170,-127l-1234 -1571c-51,38 -101,76 -151,115 -2879,2261 -3385,6466 -1125,9345l6685 8513 1528 -1200z"/>
     <path class="fil1" d="M17236 18894l-6666 -8489 0 0 0 0c-800,-1019 -1111,-2273 -967,-3472 145,-1199 744,-2344 1763,-3144l0 0 0 0c56,-44 112,-86 169,-127l27 34c-57,41 -114,83 -169,127l0 0 0 0c-1010,793 -1604,1927 -1747,3115 -143,1189 165,2431 958,3441l0 0 0 0 6665 8489 -33 26zm-6908 -16769c-51,37 -101,76 -151,115 -1435,1127 -2279,2738 -2482,4426 -203,1688 235,3454 1361,4889l6685 8513 -34 26 -6685 -8513c-1133,-1444 -1574,-3221 -1369,-4920 204,-1699 1053,-3321 2497,-4455 50,-39 101,-77 152,-115l26 34z"/>
     <path class="fil2" d="M18615 17743l-6628 -8404c-937,-1189 -726,-2931 466,-3866 106,-83 216,-157 330,-222m1233 1570c-130,30 -256,88 -367,176 -405,317 -481,913 -158,1314l6330 7849m-1173 1625l-33 -42 33 42m1173 -1625l343 435m-11125 -5027c-2260,-2879 -1754,-7084 1125,-9345 50,-39 100,-77 151,-115m1234 1571c-57,41 -114,83 -170,127 -2029,1593 -2385,4557 -792,6586l6665 8489m-1528 1200l-6685 -8513c-2260,-2879 -1754,-7084 1125,-9345 50,-39 100,-77 151,-115m1234 1571c-57,41 -114,83 -170,127 -2029,1593 -2385,4557 -792,6586"/>
     <path class="fil1" d="M18212 18059l-6628 -8403 -1 1 -4 -4c-553,-705 -767,-1573 -667,-2405 100,-827 515,-1619 1219,-2175l-1 -1 5 -4 0 0c105,-83 215,-158 327,-226l643 819c-116,61 -228,133 -334,217l0 0 -5 4 -1 -2c-481,379 -765,923 -834,1494 -68,567 78,1160 458,1643l3 4 -1 2 6627 8403 34 42 -807 633 -33 -42zm-6345 -13975c-57,41 -114,83 -170,127l0 0 0 0c-903,709 -1433,1723 -1561,2786 -128,1063 147,2174 856,3077l0 0 -2 2 6666 8488 -807 634 -6665 -8489 -2 1 0 0c-884,-1126 -1228,-2511 -1068,-3836 159,-1324 821,-2588 1947,-3473l0 0 0 0c56,-44 113,-86 170,-127l636 810zm-1234 -1571c-51,37 -101,76 -152,115 -1327,1043 -2108,2534 -2296,4097 -188,1565 216,3200 1258,4526l6684 8513 -806 634 -6685 -8514c-1219,-1552 -1692,-3459 -1473,-5282 220,-1824 1131,-3566 2683,-4784 50,-39 100,-77 151,-115l636 810zm3818 4862c-53,-32 -112,-52 -174,-59 -107,-13 -219,14 -310,85l0 0 -1 -1 -5 4 0 0c-89,71 -141,174 -155,281 -12,105 13,213 80,299l4 5 0 0 6331 7849 -400 322 404 -317 342 435 -806 633 -339 -430 -6331 -7849 -2 -3 -8 -10 -1 -1c-244,-311 -337,-693 -292,-1058 44,-362 225,-710 530,-955l3 -3 10 -7 0 -3 0 0c108,-85 225,-152 346,-202l774 985z"/>
    </g>
    <g>
     <polygon class="fil0" points="23796,21205 22671,19776 16340,11927 16340,11927 14911,13050 21465,21360 22279,22396 "/>
     <path class="fil1" d="M23779 21218l-1125 -1428 -6330 -7849 0 0 -1 -1 34 -26 6331 7849 0 0 1124 1429 -33 26zm-8851 -8181l6553 8309 815 1037 -34 26 -814 -1036 -6554 -8310 34 -26z"/>
     <polygon class="fil0" points="22279,22396 21465,21360 14911,13050 13533,14132 20883,23492 "/>
     <path class="fil1" d="M22262 22409l-814 -1036 -6554 -8310 34 -26 6553 8309 815 1037 -34 26zm-8712 -8290l7349 9360 -33 26 -7350 -9360 34 -26z"/>
     <polygon class="fil0" points="20883,23492 13533,14132 12004,15332 19354,24692 "/>
     <path class="fil1" d="M20866 23505l-7350 -9360 34 -26 7349 9360 -33 26zm-8845 -8186l7350 9360 -34 26 -7349 -9360 33 -26z"/>
     <path class="fil2" d="M21465 21360l-6554 -8310m1429 -1123l0 0 6331 7849m-392 2620l-814 -1036 814 1036m392 -2620l1125 1429m-10263 -7073l7350 9360m-1529 1200l-7350 -9360"/>
     <path class="fil1" d="M21061 21676l-6554 -8310 807 -633 6554 8310 814 1036 -807 634 -814 -1037zm-7125 -7861l7350 9360 -807 634 -7349 -9361 806 -633zm-1527 1199l7350 9360 -810 636 -7349 -9360 809 -636zm12205 5253l0 0 -7206 -9178 7206 9178zm-7870 -8656l6326 7844 -399 321 403 -316 1125 1428 -807 633 -1121 -1423 -6330 -7849 -3 -3 -1 -2 807 -633z"/>
    </g>
   </g>
   <g>
    <g style="clip-path:url(#id0)">
     <image x="14295" y="27008" width="1162" height="5474" xlink:href="Logo_Images\Logo_ImgID1.png"/>
    </g>
    <path class="fil2 str0" d="M15318 29288c3,229 6,458 9,687 -5,209 -10,418 -15,627 -6,265 -39,1099 -46,1364 -6,228 -204,411 -429,414 -5,0 -11,0 -16,0 -2,0 -4,0 -6,0 0,-1 0,-2 0,-3 -111,1 -230,-61 -301,-139 -76,-81 -121,-191 -116,-310 5,-140 10,-279 15,-419 13,-344 52,-1258 65,-1602 18,-471 28,-1110 45,-1581 7,-189 -9,-534 52,-590 268,-273 512,-353 780,-626 -4,231 -8,462 -12,693 -15,6 -30,12 -44,19 1,126 3,252 5,378 4,362 9,725 14,1088z"/>
   </g>
   <g>
    <g style="clip-path:url(#id1)">
     <image x="23557" y="6704" width="1077" height="5489" xlink:href="Logo_Images\Logo_ImgID2.png"/>
    </g>
    <path class="fil2 str0" d="M23699 9913c-11,-229 -22,-458 -33,-686 -2,-209 -4,-418 -6,-627 -2,-265 2,-1100 0,-1366 -2,-228 190,-417 415,-427 5,0 10,-1 16,-1 2,0 4,0 6,0 0,1 0,2 0,2 111,-4 231,55 305,129 79,79 128,188 127,306 0,140 -1,280 -1,420 -1,344 -10,1259 -11,1603 -1,471 11,1111 9,1582 -1,189 27,533 -32,591 -258,282 -500,370 -758,652 -4,-231 -8,-462 -12,-693 15,-6 29,-13 44,-20 -6,-126 -12,-252 -18,-378 -17,-362 -34,-724 -51,-1087z"/>
   </g>
   <g>
    <g style="clip-path:url(#id2)">
     <image x="21486" y="28372" width="2604" height="3642" xlink:href="Logo_Images\Logo_ImgID3.png"/>
    </g>
    <path class="fil2 str0" d="M22642 29718c116,126 231,252 347,378 100,120 200,240 300,361 5,6 10,12 16,19 140,171 505,628 627,775 109,132 53,368 -112,521 -4,4 -7,7 -11,11 -2,1 -4,2 -5,4 0,-1 -1,-1 -1,-1 -81,75 -200,120 -291,125 -97,5 -184,-26 -240,-95 -65,-82 -131,-164 -196,-245 -162,-201 -586,-739 -747,-940 -704,-879 -508,-871 -740,-2157 111,132 223,264 334,396 -8,13 -15,27 -23,40 64,70 127,139 191,208 184,200 367,400 551,600z"/>
   </g>
  </g>
 </g>
</svg>
